<svg xmlns="http://www.w3.org/2000/svg" xmlns:xlink="http://www.w3.org/1999/xlink" width="1230" zoomAndPan="magnify" viewBox="0 0 1230 693.000001" height="693.000001" preserveAspectRatio="xMidYMid meet" version="1.0"><defs><g/><clipPath id="id1"><path d="M 0.886719 0 L 1229.113281 0 L 1229.113281 692 L 0.886719 692 Z M 0.886719 0 " clip-rule="nonzero"/></clipPath></defs><g clip-path="url(#id1)"><path fill="rgb(100%, 100%, 100%)" d="M 0.886719 0 L 1229.113281 0 L 1229.113281 699.492188 L 0.886719 699.492188 Z M 0.886719 0 " fill-opacity="1" fill-rule="nonzero"/><path fill="rgb(100%, 100%, 100%)" d="M 0.886719 0 L 1229.113281 0 L 1229.113281 692 L 0.886719 692 Z M 0.886719 0 " fill-opacity="1" fill-rule="nonzero"/><path fill="rgb(74.119568%, 78.42865%, 56.079102%)" d="M 0.886719 0 L 1229.113281 0 L 1229.113281 692 L 0.886719 692 Z M 0.886719 0 " fill-opacity="1" fill-rule="nonzero"/></g><g fill="rgb(13.328552%, 13.328552%, 12.159729%)" fill-opacity="1"><g transform="translate(356.521762, 407.711675)"><g><path d="M 20.269531 0 L 22.566406 -61.3125 L 33.152344 -61.3125 L 35.546875 0 L 54.820312 0 L 41.738281 -209.699219 L 13.980469 -209.699219 L 0.898438 0 Z M 24.464844 -109.640625 C 25.164062 -130.410156 25.664062 -147.6875 26.363281 -168.855469 L 29.457031 -168.855469 C 30.15625 -147.6875 30.65625 -130.011719 31.355469 -109.640625 L 32.652344 -78.488281 L 23.066406 -78.488281 Z M 24.464844 -109.640625 "/></g></g></g><g fill="rgb(13.328552%, 13.328552%, 12.159729%)" fill-opacity="1"><g transform="translate(412.241032, 407.711675)"><g><path d="M 28.757812 0 C 47.332031 0 56.320312 -8.988281 56.320312 -28.457031 L 56.320312 -181.238281 C 56.320312 -200.3125 46.933594 -209.699219 28.757812 -209.699219 L 5.992188 -209.699219 L 5.992188 0 Z M 25.164062 -192.023438 L 29.359375 -192.023438 C 34.351562 -192.023438 37.144531 -189.226562 37.144531 -183.035156 L 37.144531 -26.660156 C 37.144531 -20.570312 34.351562 -17.675781 29.359375 -17.675781 L 25.164062 -17.675781 Z M 25.164062 -192.023438 "/></g></g></g><g fill="rgb(13.328552%, 13.328552%, 12.159729%)" fill-opacity="1"><g transform="translate(474.151343, 407.711675)"><g><path d="M 20.269531 0 L 22.566406 -61.3125 L 33.152344 -61.3125 L 35.546875 0 L 54.820312 0 L 41.738281 -209.699219 L 13.980469 -209.699219 L 0.898438 0 Z M 24.464844 -109.640625 C 25.164062 -130.410156 25.664062 -147.6875 26.363281 -168.855469 L 29.457031 -168.855469 C 30.15625 -147.6875 30.65625 -130.011719 31.355469 -109.640625 L 32.652344 -78.488281 L 23.066406 -78.488281 Z M 24.464844 -109.640625 "/></g></g></g><g fill="rgb(13.328552%, 13.328552%, 12.159729%)" fill-opacity="1"><g transform="translate(529.870613, 407.711675)"><g><path d="M 25.164062 0 L 25.164062 -91.566406 L 28.757812 -91.566406 C 47.832031 -91.566406 56.320312 -100.054688 56.320312 -119.925781 L 56.320312 -182.039062 C 56.320312 -201.210938 47.832031 -209.699219 28.757812 -209.699219 L 5.992188 -209.699219 L 5.992188 0 Z M 25.164062 -192.023438 L 29.558594 -192.023438 C 34.75 -192.023438 37.144531 -189.625 37.144531 -183.535156 L 37.144531 -118.230469 C 37.144531 -111.640625 34.75 -109.242188 29.558594 -109.242188 L 25.164062 -109.242188 Z M 25.164062 -192.023438 "/></g></g></g><g fill="rgb(13.328552%, 13.328552%, 12.159729%)" fill-opacity="1"><g transform="translate(590.682524, 407.711675)"><g><path d="M 34.050781 0 L 34.050781 -192.023438 L 47.632812 -192.023438 L 47.632812 -209.699219 L 1.199219 -209.699219 L 1.199219 -192.023438 L 14.878906 -192.023438 L 14.878906 0 Z M 34.050781 0 "/></g></g></g><g fill="rgb(13.328552%, 13.328552%, 12.159729%)" fill-opacity="1"><g transform="translate(639.511819, 407.711675)"><g><path d="M 20.269531 0 L 22.566406 -61.3125 L 33.152344 -61.3125 L 35.546875 0 L 54.820312 0 L 41.738281 -209.699219 L 13.980469 -209.699219 L 0.898438 0 Z M 24.464844 -109.640625 C 25.164062 -130.410156 25.664062 -147.6875 26.363281 -168.855469 L 29.457031 -168.855469 C 30.15625 -147.6875 30.65625 -130.011719 31.355469 -109.640625 L 32.652344 -78.488281 L 23.066406 -78.488281 Z M 24.464844 -109.640625 "/></g></g></g><g fill="rgb(13.328552%, 13.328552%, 12.159729%)" fill-opacity="1"><g transform="translate(695.231089, 407.711675)"><g><path d="M 55.917969 -183.933594 C 55.917969 -202.40625 47.332031 -210.894531 30.753906 -210.894531 C 14.078125 -210.894531 5.59375 -202.40625 5.59375 -183.933594 L 5.59375 -25.761719 C 5.59375 -10.386719 11.582031 -1.898438 23.167969 0.5 L 23.167969 8.585938 L 30.257812 8.585938 C 33.253906 8.585938 34.152344 9.484375 34.152344 10.882812 C 34.152344 12.382812 33.253906 13.28125 30.355469 13.28125 C 26.960938 13.28125 24.066406 12.882812 20.769531 12.28125 L 22.066406 20.96875 C 24.863281 21.667969 28.558594 22.167969 33.75 22.167969 C 43.039062 22.167969 46.632812 18.574219 46.632812 13.28125 C 46.632812 8.289062 42.339844 4.792969 35.546875 3.296875 L 35.449219 1 C 48.929688 -0.597656 55.917969 -9.1875 55.917969 -25.761719 L 55.917969 -89.472656 L 36.746094 -91.667969 L 36.746094 -24.164062 C 36.746094 -18.871094 34.351562 -16.476562 30.753906 -16.476562 C 27.160156 -16.476562 24.765625 -18.871094 24.765625 -24.164062 L 24.765625 -185.632812 C 24.765625 -190.824219 27.160156 -193.222656 30.753906 -193.222656 C 34.351562 -193.222656 36.746094 -190.824219 36.746094 -185.632812 L 36.746094 -128.8125 L 55.917969 -131.109375 Z M 55.917969 -183.933594 "/></g></g></g><g fill="rgb(13.328552%, 13.328552%, 12.159729%)" fill-opacity="1"><g transform="translate(756.342541, 407.711675)"><g><path d="M 7.589844 -216.1875 C 9.085938 -224.875 13.582031 -229.367188 19.871094 -229.367188 C 27.359375 -229.367188 30.257812 -224.976562 33.949219 -224.976562 C 35.75 -224.976562 36.945312 -225.875 38.34375 -229.367188 L 47.730469 -227.074219 C 46.234375 -218.386719 41.738281 -213.890625 35.449219 -213.890625 C 27.960938 -213.890625 25.164062 -218.285156 21.371094 -218.285156 C 19.570312 -218.285156 18.375 -217.386719 17.074219 -213.890625 Z M 20.269531 0 L 22.566406 -61.3125 L 33.152344 -61.3125 L 35.546875 0 L 54.820312 0 L 41.738281 -209.699219 L 13.980469 -209.699219 L 0.898438 0 Z M 24.464844 -109.640625 C 25.164062 -130.410156 25.664062 -147.6875 26.363281 -168.855469 L 29.457031 -168.855469 C 30.15625 -147.6875 30.65625 -130.011719 31.355469 -109.640625 L 32.652344 -78.488281 L 23.066406 -78.488281 Z M 24.464844 -109.640625 "/></g></g></g><g fill="rgb(13.328552%, 13.328552%, 12.159729%)" fill-opacity="1"><g transform="translate(812.061788, 407.711675)"><g><path d="M 5.59375 -25.761719 C 5.59375 -7.390625 14.078125 1.199219 30.753906 1.199219 C 47.53125 1.199219 55.917969 -7.390625 55.917969 -25.761719 L 55.917969 -183.933594 C 55.917969 -202.40625 47.332031 -210.894531 30.753906 -210.894531 C 14.078125 -210.894531 5.59375 -202.40625 5.59375 -183.933594 Z M 24.765625 -185.632812 C 24.765625 -190.824219 27.160156 -193.222656 30.753906 -193.222656 C 34.351562 -193.222656 36.746094 -190.824219 36.746094 -185.632812 L 36.746094 -24.164062 C 36.746094 -18.871094 34.351562 -16.476562 30.753906 -16.476562 C 27.160156 -16.476562 24.765625 -18.871094 24.765625 -24.164062 Z M 24.765625 -185.632812 "/></g></g></g><g fill="rgb(100%, 100%, 100%)" fill-opacity="1"><g transform="translate(509.118442, 471.619437)"><g><path d="M 41.984375 -12.28125 C 41.535156 -12.832031 40.6875 -12.929688 40.136719 -12.480469 C 39.9375 -12.332031 20.71875 2.894531 4.691406 -3.644531 C 0.847656 -5.242188 1.347656 -7.4375 1.496094 -8.136719 C 1.496094 -8.136719 1.496094 -8.1875 1.496094 -8.238281 C 4.34375 -7.6875 8.738281 -8.835938 11.332031 -10.535156 C 13.730469 -12.132812 14.128906 -13.777344 13.976562 -14.878906 C 13.777344 -16.824219 12.480469 -18.070312 10.582031 -18.171875 C 6.640625 -18.371094 0.0507812 -13.679688 -1.046875 -8.6875 C -1.496094 -6.839844 -1.449219 -3.34375 3.695312 -1.25 C 6.9375 0.101562 10.234375 0.648438 13.480469 0.648438 C 27.808594 0.648438 41.085938 -9.882812 41.785156 -10.433594 C 42.335938 -10.882812 42.433594 -11.730469 41.984375 -12.28125 Z M 10.433594 -15.527344 C 10.984375 -15.527344 11.28125 -15.375 11.382812 -14.578125 C 11.433594 -14.078125 10.882812 -13.378906 9.882812 -12.730469 C 7.839844 -11.382812 4.792969 -10.632812 2.746094 -10.734375 C 4.742188 -13.378906 8.335938 -15.625 10.433594 -15.527344 Z M 8.785156 -19.96875 C 8.984375 -19.96875 9.1875 -20.019531 9.386719 -20.167969 C 13.179688 -22.265625 13.878906 -24.8125 13.976562 -26.160156 C 14.128906 -27.757812 13.480469 -29.253906 12.332031 -30.152344 C 11.730469 -30.652344 10.933594 -30.503906 10.484375 -29.953125 C 10.035156 -29.40625 10.132812 -28.554688 10.683594 -28.105469 C 11.082031 -27.808594 11.433594 -27.207031 11.382812 -26.359375 C 11.332031 -25.5625 10.832031 -23.964844 8.136719 -22.414062 C 7.488281 -22.066406 7.289062 -21.265625 7.636719 -20.617188 C 7.886719 -20.21875 8.289062 -19.96875 8.785156 -19.96875 Z M 8.785156 -19.96875 "/></g></g></g><g fill="rgb(100%, 100%, 100%)" fill-opacity="1"><g transform="translate(549.204388, 471.619437)"><g/></g></g><g fill="rgb(100%, 100%, 100%)" fill-opacity="1"><g transform="translate(567.774709, 471.619437)"><g><path d="M 34.246094 -13.578125 C 33.746094 -14.078125 32.898438 -14.078125 32.398438 -13.527344 C 32.300781 -13.429688 18.769531 0.199219 9.785156 -3.195312 C 5.792969 -4.742188 4.09375 -9.386719 3.445312 -13.976562 C 4.34375 -16.175781 5.839844 -19.820312 7.238281 -23.914062 C 7.386719 -24.414062 7.539062 -24.460938 8.136719 -24.511719 C 14.878906 -25.011719 21.566406 -25.261719 25.511719 -25.261719 C 26.257812 -25.261719 26.808594 -25.859375 26.808594 -26.558594 C 26.808594 -27.308594 26.257812 -27.855469 25.511719 -27.855469 C 21.714844 -27.855469 15.476562 -27.558594 9.085938 -27.207031 C 8.835938 -27.15625 8.386719 -27.308594 8.738281 -28.207031 C 11.132812 -35.046875 12.832031 -41.984375 11.78125 -44.082031 C 10.734375 -46.179688 9.335938 -46.230469 8.636719 -46.078125 C 4.941406 -45.378906 2.246094 -35.792969 1.046875 -27.957031 C 0.949219 -27.257812 0.597656 -26.660156 -0.0507812 -26.609375 C -7.886719 -26.011719 -14.328125 -25.5625 -14.429688 -25.5625 C -15.175781 -25.511719 -15.726562 -24.910156 -15.675781 -24.164062 C -15.675781 -23.464844 -15.078125 -22.863281 -14.328125 -22.914062 L -14.226562 -22.914062 C -14.078125 -22.914062 -8.039062 -23.363281 -0.5 -23.914062 C -0.25 -23.964844 0 -23.914062 0.199219 -23.714844 C 0.398438 -23.5625 0.550781 -23.3125 0.550781 -23.0625 C -0.199219 -11.183594 2.796875 -3.046875 8.835938 -0.75 C 10.132812 -0.300781 11.480469 -0.0507812 12.878906 -0.0507812 C 22.765625 -0.0507812 33.746094 -11.183594 34.296875 -11.683594 C 34.546875 -11.929688 34.648438 -12.28125 34.648438 -12.628906 C 34.648438 -12.980469 34.496094 -13.328125 34.246094 -13.578125 Z M 3.695312 -28.058594 C 4.84375 -35.644531 7.140625 -41.636719 8.488281 -43.183594 C 8.636719 -43.285156 8.835938 -43.332031 9.035156 -43.285156 C 9.1875 -43.234375 9.335938 -43.132812 9.433594 -42.933594 C 10.035156 -41.636719 8.335938 -35.296875 5.792969 -27.757812 C 5.691406 -27.308594 5.339844 -26.957031 4.84375 -26.910156 C 4.59375 -26.859375 4.34375 -26.859375 4.042969 -26.859375 C 3.542969 -26.859375 3.644531 -27.65625 3.695312 -28.007812 Z M 3.09375 -20.21875 C 2.597656 -20.21875 2.796875 -23.714844 3.246094 -24.210938 C 3.644531 -24.460938 4.144531 -24.511719 4.542969 -24.261719 C 4.992188 -23.863281 3.644531 -20.21875 3.09375 -20.21875 Z M 3.09375 -20.21875 "/></g></g></g><g fill="rgb(100%, 100%, 100%)" fill-opacity="1"><g transform="translate(599.673738, 471.619437)"><g><path d="M 43.285156 -14.027344 C 43.035156 -14.277344 42.683594 -14.378906 42.335938 -14.378906 C 41.984375 -14.378906 41.6875 -14.226562 41.4375 -13.976562 C 36.941406 -9.234375 26.859375 -2.296875 19.46875 -2.296875 L 19.371094 -2.296875 C 17.324219 -2.195312 15.375 -2.996094 13.976562 -4.441406 C 12.179688 -6.390625 13.429688 -11.683594 14.027344 -13.378906 C 14.277344 -14.027344 13.976562 -14.726562 13.378906 -14.976562 C 12.832031 -15.277344 12.082031 -15.125 11.730469 -14.578125 C 7.886719 -8.984375 2.394531 -3.542969 0.597656 -4.59375 C 0 -4.992188 0.898438 -8.835938 3.34375 -13.179688 C 3.644531 -13.777344 3.445312 -14.527344 2.84375 -14.878906 C 2.246094 -15.226562 1.449219 -15.078125 1.097656 -14.476562 C -0.597656 -11.53125 -4.144531 -4.394531 -0.75 -2.347656 C 1.945312 -0.75 5.589844 -3.34375 8.636719 -6.488281 C 8.9375 -6.839844 9.386719 -6.9375 9.785156 -6.789062 C 10.183594 -6.691406 10.484375 -6.339844 10.582031 -5.890625 C 10.734375 -4.691406 11.234375 -3.59375 12.03125 -2.644531 C 13.929688 -0.648438 16.574219 0.449219 19.320312 0.347656 L 19.46875 0.347656 C 27.707031 0.347656 38.390625 -6.9375 43.332031 -12.132812 C 43.582031 -12.429688 43.683594 -12.730469 43.683594 -13.078125 C 43.683594 -13.429688 43.53125 -13.777344 43.285156 -14.027344 Z M 43.285156 -14.027344 "/></g></g></g><g fill="rgb(100%, 100%, 100%)" fill-opacity="1"><g transform="translate(640.957764, 471.619437)"><g><path d="M 47.226562 -11.433594 C 46.976562 -11.683594 46.679688 -11.78125 46.328125 -11.832031 C 45.980469 -11.832031 45.628906 -11.683594 45.378906 -11.433594 C 37.839844 -4.042969 26.859375 -1.496094 22.265625 -2.945312 C 18.371094 -4.195312 16.574219 -7.738281 15.777344 -11.480469 C 15.625 -12.332031 15.777344 -13.128906 16.226562 -13.828125 C 22.214844 -24.011719 28.554688 -38.691406 26.359375 -42.234375 C 25.859375 -43.035156 24.960938 -43.433594 24.011719 -43.285156 C 18.472656 -42.585938 13.730469 -31.101562 12.78125 -20.867188 C 12.582031 -18.671875 12.582031 -16.523438 12.730469 -14.378906 C 12.78125 -13.679688 12.628906 -12.980469 12.230469 -12.382812 C 11.929688 -11.882812 11.582031 -11.332031 11.234375 -10.832031 C 6.839844 -4.34375 3.84375 -2.246094 2.597656 -2.394531 C 1.945312 -2.445312 1.398438 -2.894531 1.25 -3.496094 C 0.75 -6.039062 1.347656 -8.636719 2.796875 -10.734375 C 3.84375 -11.980469 5.390625 -13.378906 6.890625 -13.078125 C 7.738281 -12.832031 8.4375 -12.179688 8.785156 -11.382812 C 8.9375 -10.683594 9.585938 -10.183594 10.285156 -10.285156 C 10.984375 -10.382812 11.480469 -11.03125 11.382812 -11.78125 C 10.882812 -13.578125 9.535156 -14.976562 7.738281 -15.527344 C 6.191406 -16.023438 3.695312 -15.824219 0.796875 -12.429688 C -0.796875 -10.582031 -2.394531 -5.691406 -1.199219 -2.546875 C -0.699219 -1.046875 0.648438 0 2.195312 0.199219 C 2.347656 0.199219 2.546875 0.199219 2.695312 0.199219 C 5.339844 0.199219 8.6875 -2.644531 12.628906 -8.289062 C 12.78125 -8.488281 13.078125 -8.636719 13.378906 -8.585938 C 13.679688 -8.585938 13.929688 -8.386719 14.027344 -8.136719 C 15.125 -4.492188 17.921875 -1.648438 21.46875 -0.449219 C 27.359375 1.398438 39.339844 -1.898438 47.226562 -9.585938 C 47.726562 -10.085938 47.726562 -10.882812 47.226562 -11.433594 Z M 15.425781 -20.617188 C 16.226562 -29.753906 19.871094 -37.792969 22.964844 -40.089844 C 23.214844 -40.238281 23.5625 -40.289062 23.863281 -40.089844 C 24.113281 -39.9375 24.261719 -39.640625 24.261719 -39.339844 C 23.8125 -35.546875 21.117188 -28.707031 16.125 -19.820312 C 15.328125 -18.519531 15.328125 -19.71875 15.425781 -20.617188 Z M 15.425781 -20.617188 "/></g></g></g><g fill="rgb(100%, 100%, 100%)" fill-opacity="1"><g transform="translate(686.385165, 471.619437)"><g><path d="M 36.394531 -14.179688 C 36.144531 -14.429688 35.84375 -14.527344 35.496094 -14.527344 C 35.144531 -14.527344 34.796875 -14.429688 34.546875 -14.179688 C 28.554688 -8.1875 20.070312 -5.441406 11.730469 -6.839844 C 11.082031 -6.988281 10.632812 -7.589844 10.734375 -8.238281 C 11.132812 -10.632812 10.933594 -13.078125 9.535156 -13.878906 C 8.636719 -14.378906 7.289062 -14.429688 5.691406 -11.730469 C 5.09375 -10.832031 4.890625 -9.734375 5.09375 -8.6875 C 5.339844 -7.636719 5.992188 -6.691406 6.890625 -6.140625 C 7.4375 -5.691406 6.789062 -4.941406 6.441406 -4.59375 C 5.492188 -3.445312 3.84375 -3.246094 2.695312 -4.144531 C 1.25 -4.792969 0.597656 -6.390625 1.148438 -7.839844 C 1.796875 -10.484375 4.394531 -12.78125 5.339844 -12.78125 C 6.039062 -12.78125 6.640625 -13.378906 6.640625 -14.078125 C 6.691406 -14.777344 6.089844 -15.375 5.390625 -15.425781 L 5.339844 -15.425781 C 2.84375 -15.425781 -0.5 -12.03125 -1.398438 -8.488281 C -2.246094 -5.890625 -1.046875 -3.046875 1.449219 -1.847656 C 2.394531 -1.296875 3.445312 -1.046875 4.542969 -1 C 6.691406 -1.097656 8.585938 -2.394531 9.484375 -4.394531 C 9.585938 -4.542969 9.835938 -4.644531 10.035156 -4.59375 C 16.375 -2.695312 27.957031 -3.894531 36.394531 -12.28125 C 36.644531 -12.53125 36.792969 -12.878906 36.792969 -13.230469 C 36.792969 -13.578125 36.644531 -13.929688 36.394531 -14.179688 Z M 8.136719 -8.488281 C 7.589844 -8.984375 7.488281 -9.785156 7.9375 -10.382812 C 8.085938 -10.632812 8.1875 -10.785156 8.289062 -10.933594 C 8.335938 -10.132812 8.289062 -9.285156 8.136719 -8.488281 Z M 8.136719 -8.488281 "/></g></g></g></svg>