<svg xmlns="http://www.w3.org/2000/svg" xmlns:xlink="http://www.w3.org/1999/xlink" width="1230" zoomAndPan="magnify" viewBox="0 0 1230 693.000001" height="693.000001" preserveAspectRatio="xMidYMid meet" version="1.0"><defs><g/><clipPath id="id1"><path d="M 0.886719 0 L 1229.113281 0 L 1229.113281 692 L 0.886719 692 Z M 0.886719 0 " clip-rule="nonzero"/></clipPath></defs><g clip-path="url(#id1)"><path fill="rgb(100%, 100%, 100%)" d="M 0.886719 0 L 1229.113281 0 L 1229.113281 699.492188 L 0.886719 699.492188 Z M 0.886719 0 " fill-opacity="1" fill-rule="nonzero"/><path fill="rgb(100%, 100%, 100%)" d="M 0.886719 0 L 1229.113281 0 L 1229.113281 692 L 0.886719 692 Z M 0.886719 0 " fill-opacity="1" fill-rule="nonzero"/><path fill="rgb(74.119568%, 78.42865%, 56.079102%)" d="M 0.886719 0 L 1229.113281 0 L 1229.113281 692 L 0.886719 692 Z M 0.886719 0 " fill-opacity="1" fill-rule="nonzero"/></g><g fill="rgb(13.328552%, 13.328552%, 12.159729%)" fill-opacity="1"><g transform="translate(375.689415, 407.711675)"><g><path d="M 55.917969 -131.109375 L 55.917969 -183.933594 C 55.917969 -202.40625 47.332031 -210.894531 30.753906 -210.894531 C 14.078125 -210.894531 5.59375 -202.40625 5.59375 -183.933594 L 5.59375 -25.761719 C 5.59375 -7.390625 14.078125 1.199219 30.753906 1.199219 C 47.332031 1.199219 55.917969 -7.390625 55.917969 -25.761719 L 55.917969 -89.472656 L 36.746094 -91.667969 L 36.746094 -24.164062 C 36.746094 -18.871094 34.351562 -16.476562 30.753906 -16.476562 C 27.160156 -16.476562 24.765625 -18.871094 24.765625 -24.164062 L 24.765625 -185.632812 C 24.765625 -190.824219 27.160156 -193.222656 30.753906 -193.222656 C 34.351562 -193.222656 36.746094 -190.824219 36.746094 -185.632812 L 36.746094 -128.8125 Z M 55.917969 -131.109375 "/></g></g></g><g fill="rgb(13.328552%, 13.328552%, 12.159729%)" fill-opacity="1"><g transform="translate(436.800867, 407.711675)"><g><path d="M 5.59375 -25.761719 C 5.59375 -7.390625 14.078125 1.199219 30.753906 1.199219 C 47.53125 1.199219 55.917969 -7.390625 55.917969 -25.761719 L 55.917969 -183.933594 C 55.917969 -202.40625 47.332031 -210.894531 30.753906 -210.894531 C 14.078125 -210.894531 5.59375 -202.40625 5.59375 -183.933594 Z M 24.765625 -185.632812 C 24.765625 -190.824219 27.160156 -193.222656 30.753906 -193.222656 C 34.351562 -193.222656 36.746094 -190.824219 36.746094 -185.632812 L 36.746094 -24.164062 C 36.746094 -18.871094 34.351562 -16.476562 30.753906 -16.476562 C 27.160156 -16.476562 24.765625 -18.871094 24.765625 -24.164062 Z M 24.765625 -185.632812 "/></g></g></g><g fill="rgb(13.328552%, 13.328552%, 12.159729%)" fill-opacity="1"><g transform="translate(498.21194, 407.711675)"><g><path d="M 23.867188 0 L 23.367188 -73.992188 C 23.066406 -103.25 21.371094 -143.292969 20.570312 -159.667969 L 23.765625 -159.667969 L 37.046875 0 L 47.230469 0 L 60.214844 -159.667969 L 63.410156 -159.667969 C 62.609375 -143.691406 60.8125 -103.351562 60.710938 -73.992188 L 60.414062 0 L 77.789062 0 L 77.789062 -209.699219 L 52.722656 -209.699219 L 48.230469 -158.273438 C 46.332031 -134.105469 44.636719 -106.445312 43.539062 -86.074219 L 40.542969 -86.074219 C 39.441406 -106.644531 37.644531 -134.007812 35.75 -158.171875 L 31.253906 -209.699219 L 5.992188 -209.699219 L 6.289062 0 Z M 23.867188 0 "/></g></g></g><g fill="rgb(13.328552%, 13.328552%, 12.159729%)" fill-opacity="1"><g transform="translate(581.990621, 407.711675)"><g><path d="M 20.269531 0 L 22.566406 -61.3125 L 33.152344 -61.3125 L 35.546875 0 L 54.820312 0 L 41.738281 -209.699219 L 13.980469 -209.699219 L 0.898438 0 Z M 24.464844 -109.640625 C 25.164062 -130.410156 25.664062 -147.6875 26.363281 -168.855469 L 29.457031 -168.855469 C 30.15625 -147.6875 30.65625 -130.011719 31.355469 -109.640625 L 32.652344 -78.488281 L 23.066406 -78.488281 Z M 24.464844 -109.640625 "/></g></g></g><g fill="rgb(13.328552%, 13.328552%, 12.159729%)" fill-opacity="1"><g transform="translate(637.709892, 407.711675)"><g/></g></g><g fill="rgb(13.328552%, 13.328552%, 12.159729%)" fill-opacity="1"><g transform="translate(662.174443, 407.711675)"><g><path d="M 28.757812 0 C 47.832031 0 56.320312 -8.585938 56.320312 -27.761719 L 56.320312 -86.476562 C 56.320312 -99.957031 50.226562 -106.046875 39.742188 -108.144531 L 39.742188 -111.140625 C 50.226562 -113.4375 56.320312 -119.527344 56.320312 -132.609375 L 56.320312 -182.039062 C 56.320312 -201.210938 47.832031 -209.699219 28.757812 -209.699219 L 5.992188 -209.699219 L 5.992188 0 Z M 25.164062 -192.023438 L 29.558594 -192.023438 C 34.75 -192.023438 37.144531 -189.625 37.144531 -183.535156 L 37.144531 -127.816406 C 37.144531 -121.023438 34.75 -118.628906 29.558594 -118.628906 L 25.164062 -118.628906 Z M 25.164062 -100.65625 L 29.558594 -100.65625 C 34.75 -100.65625 37.144531 -98.257812 37.144531 -91.566406 L 37.144531 -26.261719 C 37.144531 -20.070312 34.75 -17.675781 29.558594 -17.675781 L 25.164062 -17.675781 Z M 25.164062 -100.65625 "/></g></g></g><g fill="rgb(13.328552%, 13.328552%, 12.159729%)" fill-opacity="1"><g transform="translate(724.084753, 407.711675)"><g><path d="M 43.9375 0 L 43.9375 -17.675781 L 25.164062 -17.675781 L 25.164062 -101.253906 L 41.039062 -101.253906 L 41.039062 -118.929688 L 25.164062 -118.929688 L 25.164062 -192.023438 L 43.9375 -192.023438 L 43.9375 -209.699219 L 5.992188 -209.699219 L 5.992188 0 Z M 43.9375 0 "/></g></g></g><g fill="rgb(13.328552%, 13.328552%, 12.159729%)" fill-opacity="1"><g transform="translate(770.51752, 407.711675)"><g><path d="M 23.867188 0 L 23.367188 -73.992188 C 23.066406 -103.25 21.371094 -143.292969 20.570312 -159.667969 L 23.765625 -159.667969 L 37.046875 0 L 47.230469 0 L 60.214844 -159.667969 L 63.410156 -159.667969 C 62.609375 -143.691406 60.8125 -103.351562 60.710938 -73.992188 L 60.414062 0 L 77.789062 0 L 77.789062 -209.699219 L 52.722656 -209.699219 L 48.230469 -158.273438 C 46.332031 -134.105469 44.636719 -106.445312 43.539062 -86.074219 L 40.542969 -86.074219 C 39.441406 -106.644531 37.644531 -134.007812 35.75 -158.171875 L 31.253906 -209.699219 L 5.992188 -209.699219 L 6.289062 0 Z M 23.867188 0 "/></g></g></g><g fill="rgb(100%, 100%, 100%)" fill-opacity="1"><g transform="translate(404.854833, 471.619437)"><g><path d="M 34.246094 -13.828125 C 33.996094 -14.078125 33.699219 -14.179688 33.347656 -14.179688 C 33 -14.179688 32.648438 -14.078125 32.398438 -13.828125 C 27.605469 -9.285156 21.714844 -6.089844 15.277344 -4.542969 C 15.027344 -4.441406 14.726562 -4.542969 14.578125 -4.742188 C 14.429688 -4.992188 14.378906 -5.242188 14.527344 -5.492188 C 15.425781 -7.238281 15.226562 -9.335938 14.078125 -10.933594 C 13.378906 -11.882812 12.480469 -12.679688 11.433594 -13.28125 C 10.035156 -14.226562 8.488281 -15.328125 8.4375 -16.472656 C 8.488281 -17.125 8.738281 -17.722656 9.1875 -18.222656 L 11.882812 -20.769531 C 12.382812 -21.265625 12.429688 -22.066406 11.980469 -22.566406 C 11.53125 -23.113281 10.785156 -23.214844 10.183594 -22.765625 C 9.136719 -21.964844 8.136719 -21.066406 7.289062 -20.019531 L -0.398438 -12.832031 C -0.75 -12.53125 -0.898438 -12.03125 -0.796875 -11.582031 C -0.699219 -11.082031 -0.347656 -10.734375 0.101562 -10.582031 C 0.550781 -10.484375 1.046875 -10.582031 1.398438 -10.933594 L 5.191406 -14.476562 C 5.390625 -14.675781 5.640625 -14.726562 5.890625 -14.726562 C 6.140625 -14.675781 6.339844 -14.527344 6.441406 -14.328125 C 7.386719 -13.03125 8.585938 -11.929688 9.933594 -11.132812 C 10.683594 -10.683594 11.332031 -10.183594 11.882812 -9.535156 C 12.382812 -8.984375 12.628906 -8.238281 12.480469 -7.488281 C 12.332031 -6.738281 11.882812 -6.089844 11.234375 -5.742188 C 8.039062 -3.945312 3.992188 -4.792969 1.796875 -7.738281 C 1.449219 -8.289062 0.648438 -8.488281 0.0507812 -8.085938 C -0.550781 -7.738281 -0.75 -6.988281 -0.398438 -6.339844 C 1.25 -3.496094 4.195312 -1.648438 7.488281 -1.398438 C 8.335938 -1.25 9.136719 -1.199219 9.984375 -1.199219 C 18.421875 -1.199219 28.804688 -6.488281 34.246094 -11.980469 C 34.746094 -12.480469 34.746094 -13.328125 34.246094 -13.828125 Z M 34.246094 -13.828125 "/></g></g></g><g fill="rgb(100%, 100%, 100%)" fill-opacity="1"><g transform="translate(437.103295, 471.619437)"><g><path d="M 32.351562 -13.480469 C 31.800781 -13.976562 31.003906 -13.976562 30.503906 -13.429688 C 30.304688 -13.28125 14.128906 3.195312 3.394531 -4.644531 C 0.101562 -7.039062 3.292969 -13.28125 3.34375 -13.328125 C 3.644531 -13.976562 3.394531 -14.726562 2.746094 -15.078125 C 2.097656 -15.375 1.347656 -15.175781 1 -14.527344 C 0.796875 -14.226562 -3.246094 -6.289062 1.847656 -2.546875 C 4.195312 -0.796875 7.089844 0.148438 10.035156 0.101562 C 20.816406 0.101562 31.75 -11.03125 32.351562 -11.632812 C 32.601562 -11.882812 32.75 -12.179688 32.75 -12.53125 C 32.699219 -12.878906 32.601562 -13.230469 32.351562 -13.480469 Z M 0.449219 -17.421875 C 0.648438 -17.421875 0.847656 -17.472656 1.046875 -17.574219 C 2.246094 -18.171875 3.292969 -18.972656 4.242188 -19.917969 C 4.742188 -20.46875 4.691406 -21.265625 4.195312 -21.765625 C 3.644531 -22.265625 2.84375 -22.265625 2.347656 -21.714844 C 1.597656 -20.96875 0.75 -20.367188 -0.199219 -19.871094 C -0.699219 -19.621094 -1 -18.972656 -0.847656 -18.421875 C -0.699219 -17.824219 -0.148438 -17.421875 0.449219 -17.421875 Z M 0.449219 -17.421875 "/></g></g></g><g fill="rgb(100%, 100%, 100%)" fill-opacity="1"><g transform="translate(467.754316, 471.619437)"><g><path d="M 43.632812 -12.429688 C 43.332031 -12.628906 43.035156 -12.78125 42.683594 -12.78125 C 42.335938 -12.730469 41.984375 -12.582031 41.785156 -12.332031 C 41.636719 -12.230469 30.652344 -0.5 21.117188 -4.34375 C 19.070312 -5.441406 17.421875 -7.089844 16.273438 -9.136719 C 15.875 -9.785156 15.375 -10.433594 14.777344 -11.03125 C 14.128906 -11.832031 13.128906 -12.28125 12.082031 -12.332031 C 9.535156 -12.53125 6.441406 -10.832031 2.746094 -7.339844 C 2.644531 -7.238281 2.496094 -7.1875 2.347656 -7.289062 C 2.195312 -7.339844 2.097656 -7.539062 2.148438 -7.6875 L 3.246094 -12.582031 C 3.445312 -13.28125 2.996094 -14.027344 2.296875 -14.179688 C 1.597656 -14.328125 0.898438 -13.878906 0.699219 -13.179688 L -1.796875 -2.246094 C -1.945312 -1.648438 -1.648438 -1.046875 -1.097656 -0.796875 C -0.550781 -0.5 0.101562 -0.648438 0.5 -1.097656 C 7.1875 -8.9375 10.582031 -9.683594 11.78125 -9.734375 C 12.980469 -9.785156 13.730469 -8.238281 14.128906 -7.636719 C 15.527344 -5.191406 17.621094 -3.195312 20.117188 -1.945312 C 31.300781 2.597656 43.183594 -10.035156 43.683594 -10.582031 C 44.183594 -11.082031 44.132812 -11.929688 43.632812 -12.429688 Z M 43.632812 -12.429688 "/></g></g></g><g fill="rgb(100%, 100%, 100%)" fill-opacity="1"><g transform="translate(509.33786, 471.619437)"><g><path d="M 34.246094 -13.578125 C 33.746094 -14.078125 32.898438 -14.078125 32.398438 -13.527344 C 32.300781 -13.429688 18.769531 0.199219 9.785156 -3.195312 C 5.792969 -4.742188 4.09375 -9.386719 3.445312 -13.976562 C 4.34375 -16.175781 5.839844 -19.820312 7.238281 -23.914062 C 7.386719 -24.414062 7.539062 -24.460938 8.136719 -24.511719 C 14.878906 -25.011719 21.566406 -25.261719 25.511719 -25.261719 C 26.257812 -25.261719 26.808594 -25.859375 26.808594 -26.558594 C 26.808594 -27.308594 26.257812 -27.855469 25.511719 -27.855469 C 21.714844 -27.855469 15.476562 -27.558594 9.085938 -27.207031 C 8.835938 -27.15625 8.386719 -27.308594 8.738281 -28.207031 C 11.132812 -35.046875 12.832031 -41.984375 11.78125 -44.082031 C 10.734375 -46.179688 9.335938 -46.230469 8.636719 -46.078125 C 4.941406 -45.378906 2.246094 -35.792969 1.046875 -27.957031 C 0.949219 -27.257812 0.597656 -26.660156 -0.0507812 -26.609375 C -7.886719 -26.011719 -14.328125 -25.5625 -14.429688 -25.5625 C -15.175781 -25.511719 -15.726562 -24.910156 -15.675781 -24.164062 C -15.675781 -23.464844 -15.078125 -22.863281 -14.328125 -22.914062 L -14.226562 -22.914062 C -14.078125 -22.914062 -8.039062 -23.363281 -0.5 -23.914062 C -0.25 -23.964844 0 -23.914062 0.199219 -23.714844 C 0.398438 -23.5625 0.550781 -23.3125 0.550781 -23.0625 C -0.199219 -11.183594 2.796875 -3.046875 8.835938 -0.75 C 10.132812 -0.300781 11.480469 -0.0507812 12.878906 -0.0507812 C 22.765625 -0.0507812 33.746094 -11.183594 34.296875 -11.683594 C 34.546875 -11.929688 34.648438 -12.28125 34.648438 -12.628906 C 34.648438 -12.980469 34.496094 -13.328125 34.246094 -13.578125 Z M 3.695312 -28.058594 C 4.84375 -35.644531 7.140625 -41.636719 8.488281 -43.183594 C 8.636719 -43.285156 8.835938 -43.332031 9.035156 -43.285156 C 9.1875 -43.234375 9.335938 -43.132812 9.433594 -42.933594 C 10.035156 -41.636719 8.335938 -35.296875 5.792969 -27.757812 C 5.691406 -27.308594 5.339844 -26.957031 4.84375 -26.910156 C 4.59375 -26.859375 4.34375 -26.859375 4.042969 -26.859375 C 3.542969 -26.859375 3.644531 -27.65625 3.695312 -28.007812 Z M 3.09375 -20.21875 C 2.597656 -20.21875 2.796875 -23.714844 3.246094 -24.210938 C 3.644531 -24.460938 4.144531 -24.511719 4.542969 -24.261719 C 4.992188 -23.863281 3.644531 -20.21875 3.09375 -20.21875 Z M 3.09375 -20.21875 "/></g></g></g><g fill="rgb(100%, 100%, 100%)" fill-opacity="1"><g transform="translate(541.236889, 471.619437)"><g><path d="M 41.734375 -12.082031 C 41.238281 -12.628906 40.386719 -12.679688 39.839844 -12.179688 C 39.6875 -12.03125 24.863281 1.296875 15.675781 -4.742188 C 12.03125 -7.140625 11.132812 -12.929688 11.132812 -12.980469 C 11.082031 -13.578125 10.632812 -14.027344 10.035156 -14.128906 C 9.484375 -14.179688 8.886719 -13.878906 8.636719 -13.378906 C 6.289062 -8.1875 2.148438 -1.597656 1 -2.347656 C 0.898438 -2.347656 0.699219 -2.546875 0.550781 -2.894531 C -0.0507812 -4.542969 0.148438 -6.339844 1 -7.886719 C 2.894531 -11.78125 6.390625 -14.578125 10.582031 -15.625 C 11.03125 -15.726562 11.382812 -16.074219 11.53125 -16.523438 C 11.683594 -16.972656 11.53125 -17.472656 11.234375 -17.824219 C 10.882812 -18.121094 10.433594 -18.273438 9.984375 -18.171875 C 4.992188 -16.972656 0.847656 -13.578125 -1.398438 -8.984375 C -2.597656 -6.738281 -2.746094 -4.042969 -1.796875 -1.699219 C -1.347656 -0.550781 -0.25 0.25 1 0.25 L 1.046875 0.25 C 3.496094 0.199219 6.539062 -2.84375 8.636719 -6.140625 C 8.886719 -6.539062 9.335938 -6.738281 9.785156 -6.691406 C 10.234375 -6.691406 10.632812 -6.441406 10.832031 -6.039062 C 11.683594 -4.644531 12.832031 -3.445312 14.226562 -2.597656 C 25.109375 4.644531 40.9375 -9.636719 41.636719 -10.234375 C 41.886719 -10.484375 42.035156 -10.832031 42.035156 -11.132812 C 42.085938 -11.480469 41.933594 -11.832031 41.734375 -12.082031 Z M 41.734375 -12.082031 "/></g></g></g><g fill="rgb(100%, 100%, 100%)" fill-opacity="1"><g transform="translate(581.572436, 471.619437)"><g><path d="M 3.945312 -16.523438 L 20.417969 -18.472656 C 21.117188 -18.570312 21.667969 -19.21875 21.566406 -19.917969 C 21.515625 -20.269531 21.367188 -20.617188 21.066406 -20.816406 C 20.816406 -21.015625 20.46875 -21.117188 20.117188 -21.066406 L 3.644531 -19.121094 C 2.945312 -19.019531 2.445312 -18.421875 2.496094 -17.722656 C 2.496094 -17.023438 3.09375 -16.472656 3.792969 -16.523438 C 3.84375 -16.523438 3.894531 -16.523438 3.945312 -16.523438 Z M 3.945312 -16.523438 "/></g></g></g><g fill="rgb(100%, 100%, 100%)" fill-opacity="1"><g transform="translate(605.683909, 471.619437)"><g><path d="M 34.246094 -13.828125 C 33.996094 -14.078125 33.699219 -14.179688 33.347656 -14.179688 C 33 -14.179688 32.648438 -14.078125 32.398438 -13.828125 C 27.605469 -9.285156 21.714844 -6.089844 15.277344 -4.542969 C 15.027344 -4.441406 14.726562 -4.542969 14.578125 -4.742188 C 14.429688 -4.992188 14.378906 -5.242188 14.527344 -5.492188 C 15.425781 -7.238281 15.226562 -9.335938 14.078125 -10.933594 C 13.378906 -11.882812 12.480469 -12.679688 11.433594 -13.28125 C 10.035156 -14.226562 8.488281 -15.328125 8.4375 -16.472656 C 8.488281 -17.125 8.738281 -17.722656 9.1875 -18.222656 L 11.882812 -20.769531 C 12.382812 -21.265625 12.429688 -22.066406 11.980469 -22.566406 C 11.53125 -23.113281 10.785156 -23.214844 10.183594 -22.765625 C 9.136719 -21.964844 8.136719 -21.066406 7.289062 -20.019531 L -0.398438 -12.832031 C -0.75 -12.53125 -0.898438 -12.03125 -0.796875 -11.582031 C -0.699219 -11.082031 -0.347656 -10.734375 0.101562 -10.582031 C 0.550781 -10.484375 1.046875 -10.582031 1.398438 -10.933594 L 5.191406 -14.476562 C 5.390625 -14.675781 5.640625 -14.726562 5.890625 -14.726562 C 6.140625 -14.675781 6.339844 -14.527344 6.441406 -14.328125 C 7.386719 -13.03125 8.585938 -11.929688 9.933594 -11.132812 C 10.683594 -10.683594 11.332031 -10.183594 11.882812 -9.535156 C 12.382812 -8.984375 12.628906 -8.238281 12.480469 -7.488281 C 12.332031 -6.738281 11.882812 -6.089844 11.234375 -5.742188 C 8.039062 -3.945312 3.992188 -4.792969 1.796875 -7.738281 C 1.449219 -8.289062 0.648438 -8.488281 0.0507812 -8.085938 C -0.550781 -7.738281 -0.75 -6.988281 -0.398438 -6.339844 C 1.25 -3.496094 4.195312 -1.648438 7.488281 -1.398438 C 8.335938 -1.25 9.136719 -1.199219 9.984375 -1.199219 C 18.421875 -1.199219 28.804688 -6.488281 34.246094 -11.980469 C 34.746094 -12.480469 34.746094 -13.328125 34.246094 -13.828125 Z M 34.246094 -13.828125 "/></g></g></g><g fill="rgb(100%, 100%, 100%)" fill-opacity="1"><g transform="translate(637.932372, 471.619437)"><g><path d="M 41.886719 -12.832031 C 41.636719 -13.078125 41.335938 -13.28125 40.988281 -13.28125 C 40.636719 -13.328125 40.289062 -13.230469 40.039062 -13.03125 C 39.839844 -12.878906 20.617188 2.394531 4.59375 -4.195312 C 1.347656 -5.542969 1.199219 -7.289062 1.296875 -8.238281 C 1.296875 -8.386719 1.347656 -8.535156 1.496094 -8.636719 C 1.597656 -8.738281 1.796875 -8.738281 1.945312 -8.6875 C 5.191406 -8.488281 8.4375 -9.335938 11.234375 -11.082031 C 13.628906 -12.628906 14.027344 -14.328125 13.878906 -15.425781 C 13.777344 -17.222656 12.332031 -18.671875 10.484375 -18.722656 C 6.539062 -18.921875 -0.0507812 -14.226562 -1.148438 -9.234375 C -1.597656 -7.386719 -1.546875 -3.894531 3.59375 -1.796875 C 6.738281 -0.5 10.035156 0.101562 13.378906 0.101562 C 27.707031 0.101562 40.988281 -10.433594 41.6875 -10.984375 C 41.933594 -11.183594 42.136719 -11.53125 42.136719 -11.832031 C 42.183594 -12.179688 42.085938 -12.53125 41.886719 -12.832031 Z M 3.09375 -11.730469 C 5.042969 -14.429688 8.289062 -16.226562 10.335938 -16.074219 C 10.882812 -16.074219 11.183594 -15.875 11.28125 -15.125 C 11.332031 -14.628906 10.785156 -13.929688 9.785156 -13.28125 C 7.738281 -11.929688 1.597656 -9.734375 3.09375 -11.730469 Z M 3.09375 -11.730469 "/></g></g></g><g fill="rgb(100%, 100%, 100%)" fill-opacity="1"><g transform="translate(677.918463, 471.619437)"><g/></g></g><g fill="rgb(100%, 100%, 100%)" fill-opacity="1"><g transform="translate(696.488773, 471.619437)"><g><path d="M 37.890625 -12.480469 C 37.640625 -12.730469 37.292969 -12.878906 36.941406 -12.878906 C 36.59375 -12.878906 36.292969 -12.78125 36.042969 -12.53125 C 28.65625 -5.441406 17.871094 -7.839844 10.632812 -11.882812 C 10.484375 -12.429688 10.234375 -12.929688 9.882812 -13.378906 C 8.9375 -14.476562 7.386719 -14.878906 6.089844 -14.277344 C 5.640625 -14.128906 5.292969 -13.730469 5.242188 -13.230469 C 5.140625 -12.78125 5.339844 -12.28125 5.742188 -11.980469 C 6.140625 -11.683594 6.589844 -11.332031 7.089844 -11.03125 C 7.9375 -10.484375 8.386719 -9.535156 8.238281 -8.535156 C 8.039062 -7.238281 7.636719 -5.992188 6.9375 -4.84375 C 6.589844 -4.195312 6.089844 -3.644531 5.492188 -3.144531 C 4.691406 -2.546875 3.644531 -2.394531 2.695312 -2.796875 C 1.746094 -3.144531 1.097656 -3.992188 0.898438 -4.992188 C 0.699219 -6.441406 0.699219 -7.9375 0.847656 -9.433594 C 0.898438 -9.433594 0.949219 -9.484375 1 -9.535156 C 5.390625 -13.429688 19.820312 -35.59375 17.125 -41.285156 C 16.472656 -42.585938 15.027344 -43.234375 13.628906 -42.882812 C 8.335938 -42.035156 0.347656 -23.164062 -1.398438 -12.28125 C -2.496094 -5.589844 -1.648438 -1.449219 1.148438 0.101562 L 1.648438 0.25 C 2.097656 0.347656 2.546875 0.398438 2.996094 0.398438 C 5.589844 0.300781 7.988281 -1.148438 9.1875 -3.496094 C 9.785156 -4.441406 10.234375 -5.542969 10.535156 -6.640625 C 10.632812 -7.140625 11.03125 -7.589844 11.480469 -7.789062 C 11.980469 -8.039062 12.53125 -8.039062 12.980469 -7.839844 C 20.71875 -4.59375 30.601562 -3.695312 37.839844 -10.632812 C 38.089844 -10.882812 38.242188 -11.234375 38.242188 -11.53125 C 38.242188 -11.882812 38.140625 -12.230469 37.890625 -12.480469 Z M 14.027344 -40.289062 C 14.128906 -40.289062 14.277344 -40.289062 14.378906 -40.289062 C 14.675781 -40.289062 14.726562 -40.1875 14.777344 -40.1875 C 15.226562 -39.238281 14.578125 -35.195312 9.484375 -26.058594 C 7.4375 -22.464844 5.191406 -19.019531 2.746094 -15.625 C 2.644531 -15.476562 2.445312 -15.425781 2.246094 -15.527344 C 2.097656 -15.625 1.996094 -15.824219 2.046875 -15.976562 C 4.890625 -27.507812 11.480469 -39.886719 14.027344 -40.289062 Z M 14.027344 -40.289062 "/></g></g></g><g fill="rgb(100%, 100%, 100%)" fill-opacity="1"><g transform="translate(732.581091, 471.619437)"><g><path d="M 41.886719 -12.832031 C 41.636719 -13.078125 41.335938 -13.28125 40.988281 -13.28125 C 40.636719 -13.328125 40.289062 -13.230469 40.039062 -13.03125 C 39.839844 -12.878906 20.617188 2.394531 4.59375 -4.195312 C 1.347656 -5.542969 1.199219 -7.289062 1.296875 -8.238281 C 1.296875 -8.386719 1.347656 -8.535156 1.496094 -8.636719 C 1.597656 -8.738281 1.796875 -8.738281 1.945312 -8.6875 C 5.191406 -8.488281 8.4375 -9.335938 11.234375 -11.082031 C 13.628906 -12.628906 14.027344 -14.328125 13.878906 -15.425781 C 13.777344 -17.222656 12.332031 -18.671875 10.484375 -18.722656 C 6.539062 -18.921875 -0.0507812 -14.226562 -1.148438 -9.234375 C -1.597656 -7.386719 -1.546875 -3.894531 3.59375 -1.796875 C 6.738281 -0.5 10.035156 0.101562 13.378906 0.101562 C 27.707031 0.101562 40.988281 -10.433594 41.6875 -10.984375 C 41.933594 -11.183594 42.136719 -11.53125 42.136719 -11.832031 C 42.183594 -12.179688 42.085938 -12.53125 41.886719 -12.832031 Z M 3.09375 -11.730469 C 5.042969 -14.429688 8.289062 -16.226562 10.335938 -16.074219 C 10.882812 -16.074219 11.183594 -15.875 11.28125 -15.125 C 11.332031 -14.628906 10.785156 -13.929688 9.785156 -13.28125 C 7.738281 -11.929688 1.597656 -9.734375 3.09375 -11.730469 Z M 3.09375 -11.730469 "/></g></g></g><g fill="rgb(100%, 100%, 100%)" fill-opacity="1"><g transform="translate(772.567205, 471.619437)"><g><path d="M 54.765625 -12.679688 C 54.214844 -13.128906 53.367188 -13.03125 52.917969 -12.480469 C 52.820312 -12.332031 41.6875 1.25 31.453125 -4.691406 C 30.105469 -5.640625 29.054688 -6.9375 28.507812 -8.4375 C 27.558594 -10.335938 26.410156 -12.628906 23.214844 -12.132812 C 21.566406 -11.882812 19.019531 -9.785156 16.875 -7.386719 C 16.773438 -7.238281 16.574219 -7.1875 16.425781 -7.238281 C 16.273438 -7.289062 16.125 -7.386719 16.125 -7.589844 C 15.726562 -9.835938 14.226562 -11.730469 12.132812 -12.628906 C 10.433594 -13.078125 7.6875 -13.578125 1.945312 -7.886719 C 1.648438 -7.636719 1.25 -7.738281 1.296875 -8.136719 C 1.296875 -8.335938 2.296875 -12.382812 2.296875 -12.382812 C 2.445312 -13.078125 1.996094 -13.777344 1.296875 -13.976562 C 0.597656 -14.128906 -0.101562 -13.679688 -0.300781 -12.980469 L -2.695312 -2.445312 C -2.84375 -1.847656 -2.546875 -1.25 -1.996094 -0.949219 C -1.398438 -0.699219 -0.75 -0.847656 -0.398438 -1.347656 C 6.289062 -9.734375 9.585938 -10.535156 10.933594 -10.335938 C 12.28125 -10.085938 14.078125 -7.386719 13.878906 -3.046875 C 13.878906 -2.445312 14.226562 -1.898438 14.828125 -1.746094 C 15.425781 -1.546875 16.023438 -1.796875 16.324219 -2.296875 C 18.371094 -5.792969 22.367188 -9.335938 23.613281 -9.535156 C 24.8125 -9.734375 25.160156 -9.285156 26.160156 -7.289062 C 26.910156 -5.292969 28.304688 -3.59375 30.105469 -2.445312 C 32.199219 -1.199219 34.597656 -0.5 37.042969 -0.5 C 46.578125 -0.5 54.566406 -10.285156 54.964844 -10.832031 C 55.414062 -11.382812 55.316406 -12.230469 54.765625 -12.679688 Z M 54.765625 -12.679688 "/></g></g></g></svg>