<svg xmlns="http://www.w3.org/2000/svg" xmlns:xlink="http://www.w3.org/1999/xlink" width="1230" zoomAndPan="magnify" viewBox="0 0 1230 693.000001" height="693.000001" preserveAspectRatio="xMidYMid meet" version="1.0"><defs><g/><clipPath id="id1"><path d="M 0.886719 0 L 1229.113281 0 L 1229.113281 692 L 0.886719 692 Z M 0.886719 0 " clip-rule="nonzero"/></clipPath></defs><g clip-path="url(#id1)"><path fill="rgb(100%, 100%, 100%)" d="M 0.886719 0 L 1229.113281 0 L 1229.113281 699.492188 L 0.886719 699.492188 Z M 0.886719 0 " fill-opacity="1" fill-rule="nonzero"/><path fill="rgb(100%, 100%, 100%)" d="M 0.886719 0 L 1229.113281 0 L 1229.113281 692 L 0.886719 692 Z M 0.886719 0 " fill-opacity="1" fill-rule="nonzero"/><path fill="rgb(74.119568%, 78.42865%, 56.079102%)" d="M 0.886719 0 L 1229.113281 0 L 1229.113281 692 L 0.886719 692 Z M 0.886719 0 " fill-opacity="1" fill-rule="nonzero"/></g><g fill="rgb(13.328552%, 13.328552%, 12.159729%)" fill-opacity="1"><g transform="translate(416.283184, 407.711675)"><g><path d="M 43.9375 0 L 43.9375 -17.675781 L 25.164062 -17.675781 L 25.164062 -101.253906 L 41.039062 -101.253906 L 41.039062 -118.929688 L 25.164062 -118.929688 L 25.164062 -192.023438 L 43.9375 -192.023438 L 43.9375 -209.699219 L 5.992188 -209.699219 L 5.992188 0 Z M 43.9375 0 "/></g></g></g><g fill="rgb(13.328552%, 13.328552%, 12.159729%)" fill-opacity="1"><g transform="translate(462.715951, 407.711675)"><g><path d="M 19.671875 0 L 23.367188 -41.242188 C 24.863281 -58.414062 25.664062 -71.796875 26.363281 -88.472656 L 29.359375 -88.472656 C 29.957031 -71.796875 30.554688 -58.414062 31.953125 -41.242188 L 35.546875 0 L 54.722656 0 L 42.039062 -109.839844 L 53.921875 -209.699219 L 35.050781 -209.699219 L 31.855469 -175.347656 C 30.355469 -159.667969 29.757812 -147.1875 28.957031 -130.8125 L 25.960938 -130.8125 C 25.164062 -147.085938 24.464844 -159.667969 23.167969 -175.347656 L 20.371094 -209.699219 L 1.199219 -209.699219 L 13.28125 -109.839844 L 0.800781 0 Z M 19.671875 0 "/></g></g></g><g fill="rgb(13.328552%, 13.328552%, 12.159729%)" fill-opacity="1"><g transform="translate(518.135669, 407.711675)"><g><path d="M 43.9375 0 L 43.9375 -17.675781 L 25.164062 -17.675781 L 25.164062 -101.253906 L 41.039062 -101.253906 L 41.039062 -118.929688 L 25.164062 -118.929688 L 25.164062 -192.023438 L 43.9375 -192.023438 L 43.9375 -209.699219 L 5.992188 -209.699219 L 5.992188 0 Z M 43.9375 0 "/></g></g></g><g fill="rgb(13.328552%, 13.328552%, 12.159729%)" fill-opacity="1"><g transform="translate(564.568436, 407.711675)"><g><path d="M 25.164062 0 L 25.164062 -94.164062 L 29.558594 -94.164062 C 34.75 -94.164062 37.144531 -91.765625 37.144531 -85.078125 L 37.144531 -24.863281 C 37.144531 -13.179688 37.945312 -5.691406 40.640625 0 L 60.414062 0 C 57.714844 -5.691406 56.320312 -13.082031 56.320312 -24.863281 L 56.320312 -79.683594 C 56.320312 -93.464844 50.226562 -99.554688 39.742188 -101.652344 L 39.742188 -104.648438 C 50.226562 -106.945312 56.320312 -113.035156 56.320312 -126.117188 L 56.320312 -182.039062 C 56.320312 -201.210938 47.832031 -209.699219 28.757812 -209.699219 L 5.992188 -209.699219 L 5.992188 0 Z M 25.164062 -192.023438 L 29.558594 -192.023438 C 34.75 -192.023438 37.144531 -189.625 37.144531 -183.535156 L 37.144531 -121.324219 C 37.144531 -114.535156 34.75 -112.136719 29.558594 -112.136719 L 25.164062 -112.136719 Z M 25.164062 -192.023438 "/></g></g></g><g fill="rgb(13.328552%, 13.328552%, 12.159729%)" fill-opacity="1"><g transform="translate(626.179194, 407.711675)"><g><path d="M 55.917969 -131.109375 L 55.917969 -183.933594 C 55.917969 -202.40625 47.332031 -210.894531 30.753906 -210.894531 C 14.078125 -210.894531 5.59375 -202.40625 5.59375 -183.933594 L 5.59375 -25.761719 C 5.59375 -7.390625 14.078125 1.199219 30.753906 1.199219 C 47.332031 1.199219 55.917969 -7.390625 55.917969 -25.761719 L 55.917969 -89.472656 L 36.746094 -91.667969 L 36.746094 -24.164062 C 36.746094 -18.871094 34.351562 -16.476562 30.753906 -16.476562 C 27.160156 -16.476562 24.765625 -18.871094 24.765625 -24.164062 L 24.765625 -185.632812 C 24.765625 -190.824219 27.160156 -193.222656 30.753906 -193.222656 C 34.351562 -193.222656 36.746094 -190.824219 36.746094 -185.632812 L 36.746094 -128.8125 Z M 55.917969 -131.109375 "/></g></g></g><g fill="rgb(13.328552%, 13.328552%, 12.159729%)" fill-opacity="1"><g transform="translate(687.290646, 407.711675)"><g><path d="M 25.164062 0 L 25.164062 -209.699219 L 5.992188 -209.699219 L 5.992188 0 Z M 25.164062 0 "/></g></g></g><g fill="rgb(13.328552%, 13.328552%, 12.159729%)" fill-opacity="1"><g transform="translate(718.44551, 407.711675)"><g><path d="M 34.050781 0 L 34.050781 -192.023438 L 47.632812 -192.023438 L 47.632812 -209.699219 L 1.199219 -209.699219 L 1.199219 -192.023438 L 14.878906 -192.023438 L 14.878906 0 Z M 34.050781 0 "/></g></g></g><g fill="rgb(13.328552%, 13.328552%, 12.159729%)" fill-opacity="1"><g transform="translate(767.274782, 407.711675)"><g><path d="M 43.9375 0 L 43.9375 -17.675781 L 25.164062 -17.675781 L 25.164062 -101.253906 L 41.039062 -101.253906 L 41.039062 -118.929688 L 25.164062 -118.929688 L 25.164062 -192.023438 L 43.9375 -192.023438 L 43.9375 -209.699219 L 5.992188 -209.699219 L 5.992188 0 Z M 43.9375 0 "/></g></g></g><g fill="rgb(100%, 100%, 100%)" fill-opacity="1"><g transform="translate(454.330316, 471.619437)"><g><path d="M 34.246094 -13.828125 C 33.996094 -14.078125 33.699219 -14.179688 33.347656 -14.179688 C 33 -14.179688 32.648438 -14.078125 32.398438 -13.828125 C 27.605469 -9.285156 21.714844 -6.089844 15.277344 -4.542969 C 15.027344 -4.441406 14.726562 -4.542969 14.578125 -4.742188 C 14.429688 -4.992188 14.378906 -5.242188 14.527344 -5.492188 C 15.425781 -7.238281 15.226562 -9.335938 14.078125 -10.933594 C 13.378906 -11.882812 12.480469 -12.679688 11.433594 -13.28125 C 10.035156 -14.226562 8.488281 -15.328125 8.4375 -16.472656 C 8.488281 -17.125 8.738281 -17.722656 9.1875 -18.222656 L 11.882812 -20.769531 C 12.382812 -21.265625 12.429688 -22.066406 11.980469 -22.566406 C 11.53125 -23.113281 10.785156 -23.214844 10.183594 -22.765625 C 9.136719 -21.964844 8.136719 -21.066406 7.289062 -20.019531 L -0.398438 -12.832031 C -0.75 -12.53125 -0.898438 -12.03125 -0.796875 -11.582031 C -0.699219 -11.082031 -0.347656 -10.734375 0.101562 -10.582031 C 0.550781 -10.484375 1.046875 -10.582031 1.398438 -10.933594 L 5.191406 -14.476562 C 5.390625 -14.675781 5.640625 -14.726562 5.890625 -14.726562 C 6.140625 -14.675781 6.339844 -14.527344 6.441406 -14.328125 C 7.386719 -13.03125 8.585938 -11.929688 9.933594 -11.132812 C 10.683594 -10.683594 11.332031 -10.183594 11.882812 -9.535156 C 12.382812 -8.984375 12.628906 -8.238281 12.480469 -7.488281 C 12.332031 -6.738281 11.882812 -6.089844 11.234375 -5.742188 C 8.039062 -3.945312 3.992188 -4.792969 1.796875 -7.738281 C 1.449219 -8.289062 0.648438 -8.488281 0.0507812 -8.085938 C -0.550781 -7.738281 -0.75 -6.988281 -0.398438 -6.339844 C 1.25 -3.496094 4.195312 -1.648438 7.488281 -1.398438 C 8.335938 -1.25 9.136719 -1.199219 9.984375 -1.199219 C 18.421875 -1.199219 28.804688 -6.488281 34.246094 -11.980469 C 34.746094 -12.480469 34.746094 -13.328125 34.246094 -13.828125 Z M 34.246094 -13.828125 "/></g></g></g><g fill="rgb(100%, 100%, 100%)" fill-opacity="1"><g transform="translate(486.578779, 471.619437)"><g><path d="M 41.886719 -12.832031 C 41.636719 -13.078125 41.335938 -13.28125 40.988281 -13.28125 C 40.636719 -13.328125 40.289062 -13.230469 40.039062 -13.03125 C 39.839844 -12.878906 20.617188 2.394531 4.59375 -4.195312 C 1.347656 -5.542969 1.199219 -7.289062 1.296875 -8.238281 C 1.296875 -8.386719 1.347656 -8.535156 1.496094 -8.636719 C 1.597656 -8.738281 1.796875 -8.738281 1.945312 -8.6875 C 5.191406 -8.488281 8.4375 -9.335938 11.234375 -11.082031 C 13.628906 -12.628906 14.027344 -14.328125 13.878906 -15.425781 C 13.777344 -17.222656 12.332031 -18.671875 10.484375 -18.722656 C 6.539062 -18.921875 -0.0507812 -14.226562 -1.148438 -9.234375 C -1.597656 -7.386719 -1.546875 -3.894531 3.59375 -1.796875 C 6.738281 -0.5 10.035156 0.101562 13.378906 0.101562 C 27.707031 0.101562 40.988281 -10.433594 41.6875 -10.984375 C 41.933594 -11.183594 42.136719 -11.53125 42.136719 -11.832031 C 42.183594 -12.179688 42.085938 -12.53125 41.886719 -12.832031 Z M 3.09375 -11.730469 C 5.042969 -14.429688 8.289062 -16.226562 10.335938 -16.074219 C 10.882812 -16.074219 11.183594 -15.875 11.28125 -15.125 C 11.332031 -14.628906 10.785156 -13.929688 9.785156 -13.28125 C 7.738281 -11.929688 1.597656 -9.734375 3.09375 -11.730469 Z M 3.09375 -11.730469 "/></g></g></g><g fill="rgb(100%, 100%, 100%)" fill-opacity="1"><g transform="translate(526.564882, 471.619437)"><g><path d="M 43.285156 -14.027344 C 43.035156 -14.277344 42.683594 -14.378906 42.335938 -14.378906 C 41.984375 -14.378906 41.6875 -14.226562 41.4375 -13.976562 C 36.941406 -9.234375 26.859375 -2.296875 19.46875 -2.296875 L 19.371094 -2.296875 C 17.324219 -2.195312 15.375 -2.996094 13.976562 -4.441406 C 12.179688 -6.390625 13.429688 -11.683594 14.027344 -13.378906 C 14.277344 -14.027344 13.976562 -14.726562 13.378906 -14.976562 C 12.832031 -15.277344 12.082031 -15.125 11.730469 -14.578125 C 7.886719 -8.984375 2.394531 -3.542969 0.597656 -4.59375 C 0 -4.992188 0.898438 -8.835938 3.34375 -13.179688 C 3.644531 -13.777344 3.445312 -14.527344 2.84375 -14.878906 C 2.246094 -15.226562 1.449219 -15.078125 1.097656 -14.476562 C -0.597656 -11.53125 -4.144531 -4.394531 -0.75 -2.347656 C 1.945312 -0.75 5.589844 -3.34375 8.636719 -6.488281 C 8.9375 -6.839844 9.386719 -6.9375 9.785156 -6.789062 C 10.183594 -6.691406 10.484375 -6.339844 10.582031 -5.890625 C 10.734375 -4.691406 11.234375 -3.59375 12.03125 -2.644531 C 13.929688 -0.648438 16.574219 0.449219 19.320312 0.347656 L 19.46875 0.347656 C 27.707031 0.347656 38.390625 -6.9375 43.332031 -12.132812 C 43.582031 -12.429688 43.683594 -12.730469 43.683594 -13.078125 C 43.683594 -13.429688 43.53125 -13.777344 43.285156 -14.027344 Z M 43.285156 -14.027344 "/></g></g></g><g fill="rgb(100%, 100%, 100%)" fill-opacity="1"><g transform="translate(567.848909, 471.619437)"><g/></g></g><g fill="rgb(100%, 100%, 100%)" fill-opacity="1"><g transform="translate(586.419229, 471.619437)"><g><path d="M 42.085938 -12.429688 C 41.585938 -12.980469 40.738281 -13.03125 40.238281 -12.53125 C 40.089844 -12.429688 25.710938 0.398438 5.589844 -3.246094 C 2.195312 -3.84375 0.449219 -5.140625 0.449219 -7.039062 C 0.398438 -10.535156 5.839844 -15.625 9.433594 -16.324219 C 10.535156 -16.675781 11.730469 -16.472656 12.730469 -15.824219 C 13.429688 -15.125 13.828125 -14.128906 13.828125 -13.078125 C 13.828125 -12.382812 14.378906 -11.78125 15.078125 -11.78125 C 15.824219 -11.78125 16.375 -12.332031 16.425781 -13.03125 C 16.472656 -14.828125 15.726562 -16.574219 14.429688 -17.824219 C 12.832031 -19.019531 10.832031 -19.421875 8.9375 -18.871094 C 4.59375 -18.070312 -2.195312 -12.28125 -2.148438 -6.988281 C -2.148438 -5.09375 -1.199219 -1.796875 5.140625 -0.648438 C 7.6875 -0.199219 10.285156 0.0507812 12.929688 0.0507812 C 23.515625 -0.0507812 33.796875 -3.792969 41.984375 -10.582031 C 42.234375 -10.832031 42.382812 -11.183594 42.433594 -11.480469 C 42.433594 -11.832031 42.285156 -12.179688 42.085938 -12.429688 Z M 42.085938 -12.429688 "/></g></g></g><g fill="rgb(100%, 100%, 100%)" fill-opacity="1"><g transform="translate(626.405332, 471.619437)"><g><path d="M 36.394531 -14.179688 C 36.144531 -14.429688 35.84375 -14.527344 35.496094 -14.527344 C 35.144531 -14.527344 34.796875 -14.429688 34.546875 -14.179688 C 28.554688 -8.1875 20.070312 -5.441406 11.730469 -6.839844 C 11.082031 -6.988281 10.632812 -7.589844 10.734375 -8.238281 C 11.132812 -10.632812 10.933594 -13.078125 9.535156 -13.878906 C 8.636719 -14.378906 7.289062 -14.429688 5.691406 -11.730469 C 5.09375 -10.832031 4.890625 -9.734375 5.09375 -8.6875 C 5.339844 -7.636719 5.992188 -6.691406 6.890625 -6.140625 C 7.4375 -5.691406 6.789062 -4.941406 6.441406 -4.59375 C 5.492188 -3.445312 3.84375 -3.246094 2.695312 -4.144531 C 1.25 -4.792969 0.597656 -6.390625 1.148438 -7.839844 C 1.796875 -10.484375 4.394531 -12.78125 5.339844 -12.78125 C 6.039062 -12.78125 6.640625 -13.378906 6.640625 -14.078125 C 6.691406 -14.777344 6.089844 -15.375 5.390625 -15.425781 L 5.339844 -15.425781 C 2.84375 -15.425781 -0.5 -12.03125 -1.398438 -8.488281 C -2.246094 -5.890625 -1.046875 -3.046875 1.449219 -1.847656 C 2.394531 -1.296875 3.445312 -1.046875 4.542969 -1 C 6.691406 -1.097656 8.585938 -2.394531 9.484375 -4.394531 C 9.585938 -4.542969 9.835938 -4.644531 10.035156 -4.59375 C 16.375 -2.695312 27.957031 -3.894531 36.394531 -12.28125 C 36.644531 -12.53125 36.792969 -12.878906 36.792969 -13.230469 C 36.792969 -13.578125 36.644531 -13.929688 36.394531 -14.179688 Z M 8.136719 -8.488281 C 7.589844 -8.984375 7.488281 -9.785156 7.9375 -10.382812 C 8.085938 -10.632812 8.1875 -10.785156 8.289062 -10.933594 C 8.335938 -10.132812 8.289062 -9.285156 8.136719 -8.488281 Z M 8.136719 -8.488281 "/></g></g></g><g fill="rgb(100%, 100%, 100%)" fill-opacity="1"><g transform="translate(660.900209, 471.619437)"><g><path d="M 43.035156 -13.128906 C 42.785156 -13.378906 42.484375 -13.527344 42.136719 -13.527344 C 41.785156 -13.527344 41.4375 -13.378906 41.1875 -13.128906 C 32.550781 -4.691406 17.222656 -2.894531 13.929688 -4.84375 C 11.683594 -6.140625 11.929688 -7.6875 13.527344 -10.785156 C 14.277344 -12.28125 15.125 -14.027344 13.679688 -15.078125 C 12.332031 -16.074219 11.03125 -15.425781 9.882812 -14.828125 C 8.238281 -13.878906 6.390625 -13.378906 4.441406 -13.378906 C 3.992188 -13.378906 3.59375 -14.179688 3.695312 -14.476562 C 6.488281 -20.617188 5.242188 -21.765625 4.792969 -22.214844 C 4.042969 -22.964844 2.894531 -22.914062 1.496094 -22.066406 C -0.796875 -20.417969 -1.796875 -17.472656 -1 -14.726562 C -0.796875 -13.976562 -0.449219 -13.28125 0.0507812 -12.679688 C 0 -12.132812 0.25 -11.632812 0.75 -11.382812 C 1.046875 -11.234375 1.398438 -11.234375 1.746094 -11.332031 C 2.597656 -10.933594 3.542969 -10.734375 4.492188 -10.734375 C 6.539062 -10.683594 8.535156 -11.132812 10.335938 -12.132812 C 11.03125 -12.480469 11.28125 -12.179688 11.183594 -11.980469 C 9.984375 -9.636719 7.839844 -5.339844 12.628906 -2.546875 C 14.328125 -1.746094 16.226562 -1.398438 18.121094 -1.546875 C 25.109375 -1.546875 36.09375 -4.542969 42.984375 -11.28125 C 43.234375 -11.480469 43.382812 -11.832031 43.382812 -12.179688 C 43.433594 -12.53125 43.285156 -12.878906 43.035156 -13.128906 Z M 1.449219 -15.875 C 1.148438 -17.324219 1.648438 -18.820312 2.796875 -19.769531 C 2.445312 -18.421875 1.996094 -17.125 1.449219 -15.824219 Z M 1.449219 -15.875 "/></g></g></g><g fill="rgb(100%, 100%, 100%)" fill-opacity="1"><g transform="translate(701.834791, 471.619437)"><g><path d="M 41.136719 -13.03125 C 40.9375 -13.28125 40.585938 -13.429688 40.238281 -13.429688 C 39.886719 -13.429688 39.539062 -13.328125 39.289062 -13.078125 C 32.398438 -6.539062 21.066406 -5.140625 12.929688 -4.644531 C 12.679688 -4.59375 12.53125 -4.992188 12.679688 -5.242188 C 13.328125 -6.089844 13.777344 -7.089844 13.976562 -8.136719 C 14.378906 -10.832031 12.78125 -13.429688 10.132812 -14.179688 C 7.789062 -15.125 5.242188 -13.679688 2.445312 -9.984375 C 2.246094 -9.734375 1.996094 -9.835938 2.046875 -10.132812 C 2.246094 -11.632812 2.445312 -13.078125 2.644531 -14.429688 C 2.746094 -14.925781 2.546875 -15.375 2.195312 -15.675781 C 1.796875 -16.023438 1.296875 -16.074219 0.847656 -15.875 C 0.398438 -15.726562 0.101562 -15.277344 0.0507812 -14.828125 C -0.5 -10.832031 -1.148438 -6.691406 -1.847656 -2.695312 C -6.390625 6.441406 -11.332031 20.519531 -8.984375 22.714844 C -8.636719 23.0625 -8.136719 23.265625 -7.636719 23.265625 C -7.386719 23.265625 -7.1875 23.265625 -6.9375 23.164062 C -4.09375 22.164062 -1.347656 9.835938 0.699219 -1.996094 C 0.75 -2.097656 0.75 -2.148438 0.796875 -2.195312 C 2.195312 -5.292969 4.144531 -8.136719 6.488281 -10.582031 C 7.238281 -11.28125 8.335938 -12.082031 9.1875 -11.730469 C 10.882812 -11.03125 11.632812 -9.984375 11.382812 -8.585938 C 10.734375 -6.289062 8.738281 -4.542969 6.339844 -4.195312 C 6.039062 -4.195312 5.742188 -4.144531 5.441406 -4.144531 C 4.742188 -4.042969 4.242188 -3.445312 4.242188 -2.746094 C 4.34375 -2.046875 4.890625 -1.546875 5.589844 -1.546875 C 5.941406 -1.546875 6.289062 -1.546875 6.640625 -1.597656 C 7.589844 -1.699219 8.6875 -1.746094 9.933594 -1.796875 C 18.371094 -2.296875 32.550781 -3.046875 41.085938 -11.183594 C 41.386719 -11.382812 41.484375 -11.730469 41.535156 -12.082031 C 41.535156 -12.429688 41.386719 -12.78125 41.136719 -13.03125 Z M -6.9375 19.019531 C -6.289062 16.023438 -5.492188 13.078125 -4.441406 10.234375 C -5.042969 13.230469 -5.890625 16.125 -6.9375 19.019531 Z M -6.9375 19.019531 "/></g></g></g><g fill="rgb(100%, 100%, 100%)" fill-opacity="1"><g transform="translate(741.171932, 471.619437)"><g><path d="M 36.394531 -14.179688 C 36.144531 -14.429688 35.84375 -14.527344 35.496094 -14.527344 C 35.144531 -14.527344 34.796875 -14.429688 34.546875 -14.179688 C 28.554688 -8.1875 20.070312 -5.441406 11.730469 -6.839844 C 11.082031 -6.988281 10.632812 -7.589844 10.734375 -8.238281 C 11.132812 -10.632812 10.933594 -13.078125 9.535156 -13.878906 C 8.636719 -14.378906 7.289062 -14.429688 5.691406 -11.730469 C 5.09375 -10.832031 4.890625 -9.734375 5.09375 -8.6875 C 5.339844 -7.636719 5.992188 -6.691406 6.890625 -6.140625 C 7.4375 -5.691406 6.789062 -4.941406 6.441406 -4.59375 C 5.492188 -3.445312 3.84375 -3.246094 2.695312 -4.144531 C 1.25 -4.792969 0.597656 -6.390625 1.148438 -7.839844 C 1.796875 -10.484375 4.394531 -12.78125 5.339844 -12.78125 C 6.039062 -12.78125 6.640625 -13.378906 6.640625 -14.078125 C 6.691406 -14.777344 6.089844 -15.375 5.390625 -15.425781 L 5.339844 -15.425781 C 2.84375 -15.425781 -0.5 -12.03125 -1.398438 -8.488281 C -2.246094 -5.890625 -1.046875 -3.046875 1.449219 -1.847656 C 2.394531 -1.296875 3.445312 -1.046875 4.542969 -1 C 6.691406 -1.097656 8.585938 -2.394531 9.484375 -4.394531 C 9.585938 -4.542969 9.835938 -4.644531 10.035156 -4.59375 C 16.375 -2.695312 27.957031 -3.894531 36.394531 -12.28125 C 36.644531 -12.53125 36.792969 -12.878906 36.792969 -13.230469 C 36.792969 -13.578125 36.644531 -13.929688 36.394531 -14.179688 Z M 8.136719 -8.488281 C 7.589844 -8.984375 7.488281 -9.785156 7.9375 -10.382812 C 8.085938 -10.632812 8.1875 -10.785156 8.289062 -10.933594 C 8.335938 -10.132812 8.289062 -9.285156 8.136719 -8.488281 Z M 8.136719 -8.488281 "/></g></g></g></svg>