<svg xmlns="http://www.w3.org/2000/svg" xmlns:xlink="http://www.w3.org/1999/xlink" width="1230" zoomAndPan="magnify" viewBox="0 0 1230 693.000001" height="693.000001" preserveAspectRatio="xMidYMid meet" version="1.0"><defs><g/><clipPath id="id1"><path d="M 0.886719 0 L 1229.113281 0 L 1229.113281 692 L 0.886719 692 Z M 0.886719 0 " clip-rule="nonzero"/></clipPath></defs><g clip-path="url(#id1)"><path fill="rgb(100%, 100%, 100%)" d="M 0.886719 0 L 1229.113281 0 L 1229.113281 699.492188 L 0.886719 699.492188 Z M 0.886719 0 " fill-opacity="1" fill-rule="nonzero"/><path fill="rgb(100%, 100%, 100%)" d="M 0.886719 0 L 1229.113281 0 L 1229.113281 692 L 0.886719 692 Z M 0.886719 0 " fill-opacity="1" fill-rule="nonzero"/><path fill="rgb(74.119568%, 78.42865%, 56.079102%)" d="M 0.886719 0 L 1229.113281 0 L 1229.113281 692 L 0.886719 692 Z M 0.886719 0 " fill-opacity="1" fill-rule="nonzero"/></g><g fill="rgb(13.328552%, 13.328552%, 12.159729%)" fill-opacity="1"><g transform="translate(461.066213, 407.711675)"><g><path d="M 23.464844 0 L 22.765625 -66.703125 C 22.367188 -94.863281 20.570312 -123.222656 19.171875 -142.695312 L 22.367188 -142.695312 L 39.242188 0 L 58.617188 0 L 58.617188 -209.699219 L 41.242188 -209.699219 L 41.839844 -143.792969 C 42.140625 -118.527344 44.136719 -86.574219 45.535156 -67.101562 L 42.339844 -67.101562 L 25.464844 -209.699219 L 5.992188 -209.699219 L 5.992188 0 Z M 23.464844 0 "/></g></g></g><g fill="rgb(13.328552%, 13.328552%, 12.159729%)" fill-opacity="1"><g transform="translate(525.672659, 407.711675)"><g><path d="M 5.792969 -25.761719 C 5.792969 -7.390625 14.28125 1.199219 30.957031 1.199219 C 47.53125 1.199219 56.117188 -7.390625 56.117188 -25.761719 L 56.117188 -209.699219 L 36.945312 -209.699219 L 36.945312 -24.164062 C 36.945312 -18.871094 34.550781 -16.476562 30.957031 -16.476562 C 27.359375 -16.476562 24.964844 -18.871094 24.964844 -24.164062 L 24.964844 -209.699219 L 5.792969 -209.699219 Z M 5.792969 -25.761719 "/></g></g></g><g fill="rgb(13.328552%, 13.328552%, 12.159729%)" fill-opacity="1"><g transform="translate(587.483127, 407.711675)"><g><path d="M 23.464844 0 L 22.765625 -66.703125 C 22.367188 -94.863281 20.570312 -123.222656 19.171875 -142.695312 L 22.367188 -142.695312 L 39.242188 0 L 58.617188 0 L 58.617188 -209.699219 L 41.242188 -209.699219 L 41.839844 -143.792969 C 42.140625 -118.527344 44.136719 -86.574219 45.535156 -67.101562 L 42.339844 -67.101562 L 25.464844 -209.699219 L 5.992188 -209.699219 L 5.992188 0 Z M 23.464844 0 "/></g></g></g><g fill="rgb(13.328552%, 13.328552%, 12.159729%)" fill-opacity="1"><g transform="translate(652.089573, 407.711675)"><g><path d="M 55.917969 -131.109375 L 55.917969 -183.933594 C 55.917969 -202.40625 47.332031 -210.894531 30.753906 -210.894531 C 14.078125 -210.894531 5.59375 -202.40625 5.59375 -183.933594 L 5.59375 -25.761719 C 5.59375 -7.390625 14.078125 1.199219 30.753906 1.199219 C 47.332031 1.199219 55.917969 -7.390625 55.917969 -25.761719 L 55.917969 -89.472656 L 36.746094 -91.667969 L 36.746094 -24.164062 C 36.746094 -18.871094 34.351562 -16.476562 30.753906 -16.476562 C 27.160156 -16.476562 24.765625 -18.871094 24.765625 -24.164062 L 24.765625 -185.632812 C 24.765625 -190.824219 27.160156 -193.222656 30.753906 -193.222656 C 34.351562 -193.222656 36.746094 -190.824219 36.746094 -185.632812 L 36.746094 -128.8125 Z M 55.917969 -131.109375 "/></g></g></g><g fill="rgb(13.328552%, 13.328552%, 12.159729%)" fill-opacity="1"><g transform="translate(713.201014, 407.711675)"><g><path d="M 20.269531 0 L 22.566406 -61.3125 L 33.152344 -61.3125 L 35.546875 0 L 54.820312 0 L 41.738281 -209.699219 L 13.980469 -209.699219 L 0.898438 0 Z M 24.464844 -109.640625 C 25.164062 -130.410156 25.664062 -147.6875 26.363281 -168.855469 L 29.457031 -168.855469 C 30.15625 -147.6875 30.65625 -130.011719 31.355469 -109.640625 L 32.652344 -78.488281 L 23.066406 -78.488281 Z M 24.464844 -109.640625 "/></g></g></g><g fill="rgb(100%, 100%, 100%)" fill-opacity="1"><g transform="translate(488.593373, 471.619437)"><g><path d="M 47.226562 -11.433594 C 46.976562 -11.683594 46.679688 -11.78125 46.328125 -11.832031 C 45.980469 -11.832031 45.628906 -11.683594 45.378906 -11.433594 C 37.839844 -4.042969 26.859375 -1.496094 22.265625 -2.945312 C 18.371094 -4.195312 16.574219 -7.738281 15.777344 -11.480469 C 15.625 -12.332031 15.777344 -13.128906 16.226562 -13.828125 C 22.214844 -24.011719 28.554688 -38.691406 26.359375 -42.234375 C 25.859375 -43.035156 24.960938 -43.433594 24.011719 -43.285156 C 18.472656 -42.585938 13.730469 -31.101562 12.78125 -20.867188 C 12.582031 -18.671875 12.582031 -16.523438 12.730469 -14.378906 C 12.78125 -13.679688 12.628906 -12.980469 12.230469 -12.382812 C 11.929688 -11.882812 11.582031 -11.332031 11.234375 -10.832031 C 6.839844 -4.34375 3.84375 -2.246094 2.597656 -2.394531 C 1.945312 -2.445312 1.398438 -2.894531 1.25 -3.496094 C 0.75 -6.039062 1.347656 -8.636719 2.796875 -10.734375 C 3.84375 -11.980469 5.390625 -13.378906 6.890625 -13.078125 C 7.738281 -12.832031 8.4375 -12.179688 8.785156 -11.382812 C 8.9375 -10.683594 9.585938 -10.183594 10.285156 -10.285156 C 10.984375 -10.382812 11.480469 -11.03125 11.382812 -11.78125 C 10.882812 -13.578125 9.535156 -14.976562 7.738281 -15.527344 C 6.191406 -16.023438 3.695312 -15.824219 0.796875 -12.429688 C -0.796875 -10.582031 -2.394531 -5.691406 -1.199219 -2.546875 C -0.699219 -1.046875 0.648438 0 2.195312 0.199219 C 2.347656 0.199219 2.546875 0.199219 2.695312 0.199219 C 5.339844 0.199219 8.6875 -2.644531 12.628906 -8.289062 C 12.78125 -8.488281 13.078125 -8.636719 13.378906 -8.585938 C 13.679688 -8.585938 13.929688 -8.386719 14.027344 -8.136719 C 15.125 -4.492188 17.921875 -1.648438 21.46875 -0.449219 C 27.359375 1.398438 39.339844 -1.898438 47.226562 -9.585938 C 47.726562 -10.085938 47.726562 -10.882812 47.226562 -11.433594 Z M 15.425781 -20.617188 C 16.226562 -29.753906 19.871094 -37.792969 22.964844 -40.089844 C 23.214844 -40.238281 23.5625 -40.289062 23.863281 -40.089844 C 24.113281 -39.9375 24.261719 -39.640625 24.261719 -39.339844 C 23.8125 -35.546875 21.117188 -28.707031 16.125 -19.820312 C 15.328125 -18.519531 15.328125 -19.71875 15.425781 -20.617188 Z M 15.425781 -20.617188 "/></g></g></g><g fill="rgb(100%, 100%, 100%)" fill-opacity="1"><g transform="translate(534.020774, 471.619437)"><g><path d="M 41.886719 -12.832031 C 41.636719 -13.078125 41.335938 -13.28125 40.988281 -13.28125 C 40.636719 -13.328125 40.289062 -13.230469 40.039062 -13.03125 C 39.839844 -12.878906 20.617188 2.394531 4.59375 -4.195312 C 1.347656 -5.542969 1.199219 -7.289062 1.296875 -8.238281 C 1.296875 -8.386719 1.347656 -8.535156 1.496094 -8.636719 C 1.597656 -8.738281 1.796875 -8.738281 1.945312 -8.6875 C 5.191406 -8.488281 8.4375 -9.335938 11.234375 -11.082031 C 13.628906 -12.628906 14.027344 -14.328125 13.878906 -15.425781 C 13.777344 -17.222656 12.332031 -18.671875 10.484375 -18.722656 C 6.539062 -18.921875 -0.0507812 -14.226562 -1.148438 -9.234375 C -1.597656 -7.386719 -1.546875 -3.894531 3.59375 -1.796875 C 6.738281 -0.5 10.035156 0.101562 13.378906 0.101562 C 27.707031 0.101562 40.988281 -10.433594 41.6875 -10.984375 C 41.933594 -11.183594 42.136719 -11.53125 42.136719 -11.832031 C 42.183594 -12.179688 42.085938 -12.53125 41.886719 -12.832031 Z M 3.09375 -11.730469 C 5.042969 -14.429688 8.289062 -16.226562 10.335938 -16.074219 C 10.882812 -16.074219 11.183594 -15.875 11.28125 -15.125 C 11.332031 -14.628906 10.785156 -13.929688 9.785156 -13.28125 C 7.738281 -11.929688 1.597656 -9.734375 3.09375 -11.730469 Z M 3.09375 -11.730469 "/></g></g></g><g fill="rgb(100%, 100%, 100%)" fill-opacity="1"><g transform="translate(574.006876, 471.619437)"><g><path d="M 34.246094 -13.828125 C 33.996094 -14.078125 33.699219 -14.179688 33.347656 -14.179688 C 33 -14.179688 32.648438 -14.078125 32.398438 -13.828125 C 27.605469 -9.285156 21.714844 -6.089844 15.277344 -4.542969 C 15.027344 -4.441406 14.726562 -4.542969 14.578125 -4.742188 C 14.429688 -4.992188 14.378906 -5.242188 14.527344 -5.492188 C 15.425781 -7.238281 15.226562 -9.335938 14.078125 -10.933594 C 13.378906 -11.882812 12.480469 -12.679688 11.433594 -13.28125 C 10.035156 -14.226562 8.488281 -15.328125 8.4375 -16.472656 C 8.488281 -17.125 8.738281 -17.722656 9.1875 -18.222656 L 11.882812 -20.769531 C 12.382812 -21.265625 12.429688 -22.066406 11.980469 -22.566406 C 11.53125 -23.113281 10.785156 -23.214844 10.183594 -22.765625 C 9.136719 -21.964844 8.136719 -21.066406 7.289062 -20.019531 L -0.398438 -12.832031 C -0.75 -12.53125 -0.898438 -12.03125 -0.796875 -11.582031 C -0.699219 -11.082031 -0.347656 -10.734375 0.101562 -10.582031 C 0.550781 -10.484375 1.046875 -10.582031 1.398438 -10.933594 L 5.191406 -14.476562 C 5.390625 -14.675781 5.640625 -14.726562 5.890625 -14.726562 C 6.140625 -14.675781 6.339844 -14.527344 6.441406 -14.328125 C 7.386719 -13.03125 8.585938 -11.929688 9.933594 -11.132812 C 10.683594 -10.683594 11.332031 -10.183594 11.882812 -9.535156 C 12.382812 -8.984375 12.628906 -8.238281 12.480469 -7.488281 C 12.332031 -6.738281 11.882812 -6.089844 11.234375 -5.742188 C 8.039062 -3.945312 3.992188 -4.792969 1.796875 -7.738281 C 1.449219 -8.289062 0.648438 -8.488281 0.0507812 -8.085938 C -0.550781 -7.738281 -0.75 -6.988281 -0.398438 -6.339844 C 1.25 -3.496094 4.195312 -1.648438 7.488281 -1.398438 C 8.335938 -1.25 9.136719 -1.199219 9.984375 -1.199219 C 18.421875 -1.199219 28.804688 -6.488281 34.246094 -11.980469 C 34.746094 -12.480469 34.746094 -13.328125 34.246094 -13.828125 Z M 34.246094 -13.828125 "/></g></g></g><g fill="rgb(100%, 100%, 100%)" fill-opacity="1"><g transform="translate(606.255339, 471.619437)"><g><path d="M 32.351562 -13.480469 C 31.800781 -13.976562 31.003906 -13.976562 30.503906 -13.429688 C 30.304688 -13.28125 14.128906 3.195312 3.394531 -4.644531 C 0.101562 -7.039062 3.292969 -13.28125 3.34375 -13.328125 C 3.644531 -13.976562 3.394531 -14.726562 2.746094 -15.078125 C 2.097656 -15.375 1.347656 -15.175781 1 -14.527344 C 0.796875 -14.226562 -3.246094 -6.289062 1.847656 -2.546875 C 4.195312 -0.796875 7.089844 0.148438 10.035156 0.101562 C 20.816406 0.101562 31.75 -11.03125 32.351562 -11.632812 C 32.601562 -11.882812 32.75 -12.179688 32.75 -12.53125 C 32.699219 -12.878906 32.601562 -13.230469 32.351562 -13.480469 Z M 0.449219 -17.421875 C 0.648438 -17.421875 0.847656 -17.472656 1.046875 -17.574219 C 2.246094 -18.171875 3.292969 -18.972656 4.242188 -19.917969 C 4.742188 -20.46875 4.691406 -21.265625 4.195312 -21.765625 C 3.644531 -22.265625 2.84375 -22.265625 2.347656 -21.714844 C 1.597656 -20.96875 0.75 -20.367188 -0.199219 -19.871094 C -0.699219 -19.621094 -1 -18.972656 -0.847656 -18.421875 C -0.699219 -17.824219 -0.148438 -17.421875 0.449219 -17.421875 Z M 0.449219 -17.421875 "/></g></g></g><g fill="rgb(100%, 100%, 100%)" fill-opacity="1"><g transform="translate(636.90636, 471.619437)"><g><path d="M 34.246094 -13.828125 C 33.996094 -14.078125 33.699219 -14.179688 33.347656 -14.179688 C 33 -14.179688 32.648438 -14.078125 32.398438 -13.828125 C 27.605469 -9.285156 21.714844 -6.089844 15.277344 -4.542969 C 15.027344 -4.441406 14.726562 -4.542969 14.578125 -4.742188 C 14.429688 -4.992188 14.378906 -5.242188 14.527344 -5.492188 C 15.425781 -7.238281 15.226562 -9.335938 14.078125 -10.933594 C 13.378906 -11.882812 12.480469 -12.679688 11.433594 -13.28125 C 10.035156 -14.226562 8.488281 -15.328125 8.4375 -16.472656 C 8.488281 -17.125 8.738281 -17.722656 9.1875 -18.222656 L 11.882812 -20.769531 C 12.382812 -21.265625 12.429688 -22.066406 11.980469 -22.566406 C 11.53125 -23.113281 10.785156 -23.214844 10.183594 -22.765625 C 9.136719 -21.964844 8.136719 -21.066406 7.289062 -20.019531 L -0.398438 -12.832031 C -0.75 -12.53125 -0.898438 -12.03125 -0.796875 -11.582031 C -0.699219 -11.082031 -0.347656 -10.734375 0.101562 -10.582031 C 0.550781 -10.484375 1.046875 -10.582031 1.398438 -10.933594 L 5.191406 -14.476562 C 5.390625 -14.675781 5.640625 -14.726562 5.890625 -14.726562 C 6.140625 -14.675781 6.339844 -14.527344 6.441406 -14.328125 C 7.386719 -13.03125 8.585938 -11.929688 9.933594 -11.132812 C 10.683594 -10.683594 11.332031 -10.183594 11.882812 -9.535156 C 12.382812 -8.984375 12.628906 -8.238281 12.480469 -7.488281 C 12.332031 -6.738281 11.882812 -6.089844 11.234375 -5.742188 C 8.039062 -3.945312 3.992188 -4.792969 1.796875 -7.738281 C 1.449219 -8.289062 0.648438 -8.488281 0.0507812 -8.085938 C -0.550781 -7.738281 -0.75 -6.988281 -0.398438 -6.339844 C 1.25 -3.496094 4.195312 -1.648438 7.488281 -1.398438 C 8.335938 -1.25 9.136719 -1.199219 9.984375 -1.199219 C 18.421875 -1.199219 28.804688 -6.488281 34.246094 -11.980469 C 34.746094 -12.480469 34.746094 -13.328125 34.246094 -13.828125 Z M 34.246094 -13.828125 "/></g></g></g><g fill="rgb(100%, 100%, 100%)" fill-opacity="1"><g transform="translate(669.154822, 471.619437)"><g><path d="M 34.246094 -13.578125 C 33.746094 -14.078125 32.898438 -14.078125 32.398438 -13.527344 C 32.300781 -13.429688 18.769531 0.199219 9.785156 -3.195312 C 5.792969 -4.742188 4.09375 -9.386719 3.445312 -13.976562 C 4.34375 -16.175781 5.839844 -19.820312 7.238281 -23.914062 C 7.386719 -24.414062 7.539062 -24.460938 8.136719 -24.511719 C 14.878906 -25.011719 21.566406 -25.261719 25.511719 -25.261719 C 26.257812 -25.261719 26.808594 -25.859375 26.808594 -26.558594 C 26.808594 -27.308594 26.257812 -27.855469 25.511719 -27.855469 C 21.714844 -27.855469 15.476562 -27.558594 9.085938 -27.207031 C 8.835938 -27.15625 8.386719 -27.308594 8.738281 -28.207031 C 11.132812 -35.046875 12.832031 -41.984375 11.78125 -44.082031 C 10.734375 -46.179688 9.335938 -46.230469 8.636719 -46.078125 C 4.941406 -45.378906 2.246094 -35.792969 1.046875 -27.957031 C 0.949219 -27.257812 0.597656 -26.660156 -0.0507812 -26.609375 C -7.886719 -26.011719 -14.328125 -25.5625 -14.429688 -25.5625 C -15.175781 -25.511719 -15.726562 -24.910156 -15.675781 -24.164062 C -15.675781 -23.464844 -15.078125 -22.863281 -14.328125 -22.914062 L -14.226562 -22.914062 C -14.078125 -22.914062 -8.039062 -23.363281 -0.5 -23.914062 C -0.25 -23.964844 0 -23.914062 0.199219 -23.714844 C 0.398438 -23.5625 0.550781 -23.3125 0.550781 -23.0625 C -0.199219 -11.183594 2.796875 -3.046875 8.835938 -0.75 C 10.132812 -0.300781 11.480469 -0.0507812 12.878906 -0.0507812 C 22.765625 -0.0507812 33.746094 -11.183594 34.296875 -11.683594 C 34.546875 -11.929688 34.648438 -12.28125 34.648438 -12.628906 C 34.648438 -12.980469 34.496094 -13.328125 34.246094 -13.578125 Z M 3.695312 -28.058594 C 4.84375 -35.644531 7.140625 -41.636719 8.488281 -43.183594 C 8.636719 -43.285156 8.835938 -43.332031 9.035156 -43.285156 C 9.1875 -43.234375 9.335938 -43.132812 9.433594 -42.933594 C 10.035156 -41.636719 8.335938 -35.296875 5.792969 -27.757812 C 5.691406 -27.308594 5.339844 -26.957031 4.84375 -26.910156 C 4.59375 -26.859375 4.34375 -26.859375 4.042969 -26.859375 C 3.542969 -26.859375 3.644531 -27.65625 3.695312 -28.007812 Z M 3.09375 -20.21875 C 2.597656 -20.21875 2.796875 -23.714844 3.246094 -24.210938 C 3.644531 -24.460938 4.144531 -24.511719 4.542969 -24.261719 C 4.992188 -23.863281 3.644531 -20.21875 3.09375 -20.21875 Z M 3.09375 -20.21875 "/></g></g></g><g fill="rgb(100%, 100%, 100%)" fill-opacity="1"><g transform="translate(701.053851, 471.619437)"><g><path d="M 41.734375 -12.082031 C 41.238281 -12.628906 40.386719 -12.679688 39.839844 -12.179688 C 39.6875 -12.03125 24.863281 1.296875 15.675781 -4.742188 C 12.03125 -7.140625 11.132812 -12.929688 11.132812 -12.980469 C 11.082031 -13.578125 10.632812 -14.027344 10.035156 -14.128906 C 9.484375 -14.179688 8.886719 -13.878906 8.636719 -13.378906 C 6.289062 -8.1875 2.148438 -1.597656 1 -2.347656 C 0.898438 -2.347656 0.699219 -2.546875 0.550781 -2.894531 C -0.0507812 -4.542969 0.148438 -6.339844 1 -7.886719 C 2.894531 -11.78125 6.390625 -14.578125 10.582031 -15.625 C 11.03125 -15.726562 11.382812 -16.074219 11.53125 -16.523438 C 11.683594 -16.972656 11.53125 -17.472656 11.234375 -17.824219 C 10.882812 -18.121094 10.433594 -18.273438 9.984375 -18.171875 C 4.992188 -16.972656 0.847656 -13.578125 -1.398438 -8.984375 C -2.597656 -6.738281 -2.746094 -4.042969 -1.796875 -1.699219 C -1.347656 -0.550781 -0.25 0.25 1 0.25 L 1.046875 0.25 C 3.496094 0.199219 6.539062 -2.84375 8.636719 -6.140625 C 8.886719 -6.539062 9.335938 -6.738281 9.785156 -6.691406 C 10.234375 -6.691406 10.632812 -6.441406 10.832031 -6.039062 C 11.683594 -4.644531 12.832031 -3.445312 14.226562 -2.597656 C 25.109375 4.644531 40.9375 -9.636719 41.636719 -10.234375 C 41.886719 -10.484375 42.035156 -10.832031 42.035156 -11.132812 C 42.085938 -11.480469 41.933594 -11.832031 41.734375 -12.082031 Z M 41.734375 -12.082031 "/></g></g></g></svg>