<svg xmlns="http://www.w3.org/2000/svg" xmlns:xlink="http://www.w3.org/1999/xlink" width="810" zoomAndPan="magnify" viewBox="0 0 810 809.999993" height="809.999993" preserveAspectRatio="xMidYMid meet" version="1.0"><defs><g/></defs><rect x="-81" width="972" fill="rgb(100%, 100%, 100%)" y="-80.999999" height="971.999992" fill-opacity="1"/><rect x="-81" width="972" fill="rgb(100%, 100%, 100%)" y="-80.999999" height="971.999992" fill-opacity="1"/><rect x="-81" width="972" fill="rgb(93.728638%, 94.509888%, 85.488892%)" y="-80.999999" height="971.999992" fill-opacity="1"/><path fill="rgb(25.099182%, 73.329163%, 41.569519%)" d="M 425.789062 444.203125 C 426.46875 444.425781 426.933594 443.9375 427.453125 443.675781 C 442.816406 435.878906 461.660156 433.703125 466.300781 437.601562 C 465.152344 437.773438 453.53125 438.574219 449.417969 439.734375 C 435.464844 443.675781 417.753906 454.917969 416.910156 456.078125 C 410.941406 464.296875 399.101562 482.425781 393.609375 499.097656 C 398.96875 498.789062 414.296875 494.539062 427.175781 490.195312 C 483.050781 471.335938 546.808594 407.992188 556.308594 346.902344 C 557.183594 341.296875 557.644531 335.660156 557.152344 329.964844 C 554.570312 300.125 528.574219 279.882812 502.652344 286.234375 C 440.207031 301.527344 398.246094 381.433594 389.703125 446.222656 C 388.167969 457.851562 387.710938 468.996094 388.40625 479.191406 C 388.433594 479.171875 396.566406 465.554688 400.089844 460.460938 C 403.4375 455.625 407.628906 450.011719 414.597656 440.457031 C 407.808594 431.039062 418.070312 386.214844 425.097656 390.40625 C 424.128906 398.46875 419.261719 404.488281 418.074219 424.851562 C 418.042969 425.378906 417.515625 434.167969 417.933594 436.140625 C 424.175781 428.464844 430.003906 420.832031 436.429688 413.59375 C 429.777344 408.308594 438.179688 363.023438 447.070312 361.546875 C 447.742188 361.433594 448.367188 361.5 448.921875 362.171875 C 445.113281 366.792969 439.835938 389.890625 440.796875 409.101562 C 446.492188 403.433594 451.925781 398.027344 457.238281 392.742188 C 456.160156 376.972656 456.980469 358.480469 467.867188 347.410156 C 468.785156 346.480469 470 346.535156 471.109375 347.355469 C 471.054688 347.5 471.015625 347.660156 470.9375 347.796875 C 464.878906 358.058594 461.664062 388.273438 461.695312 388.65625 C 462.039062 388.363281 484.597656 367.269531 487.511719 366.292969 C 488.378906 366 489.210938 365.96875 489.957031 366.835938 C 485.535156 371.890625 456.277344 402.347656 455.246094 406.902344 C 463.367188 403.539062 472.355469 399.394531 487.148438 400.742188 C 487.875 400.804688 488.65625 400.777344 489.476562 401.464844 C 488.425781 401.816406 488.871094 401.988281 483.488281 402.265625 C 467.976562 403.074219 450.15625 413.359375 448.820312 415.039062 C 427.773438 441.449219 432.359375 435.625 425.851562 444.21875 L 425.914062 444.257812 Z M 391.894531 503.859375 C 387.34375 518.300781 385.710938 533.164062 386.757812 548.34375 C 386.53125 551.15625 380.160156 552.472656 375.199219 550.132812 C 373.222656 549.199219 373.226562 547.550781 373.164062 542.765625 C 372.890625 521.832031 376.460938 508.152344 383.597656 489.945312 C 381.320312 472.695312 374.066406 437.179688 390.378906 390.933594 C 415.558594 319.535156 485.246094 257.742188 542.179688 286.542969 C 561.421875 296.277344 572.285156 317.5625 570.367188 339.742188 C 564.921875 402.757812 495.523438 481.707031 421.539062 498.402344 C 399.386719 503.402344 397.378906 503.140625 391.894531 503.859375 " fill-opacity="1" fill-rule="nonzero"/><path fill="rgb(25.099182%, 73.329163%, 41.569519%)" d="M 374.976562 492.277344 C 367.617188 502.390625 304.0625 467.339844 280.265625 416.023438 C 238.011719 324.90625 311.601562 260.878906 364.871094 301.035156 C 392.097656 321.601562 396.074219 370.839844 387.6875 350.714844 C 376.074219 322.84375 358.640625 296.941406 328.109375 295.621094 C 280.25 293.554688 246.121094 407.902344 347.507812 475.335938 C 356.890625 481.578125 362.546875 486.304688 372.082031 489.3125 C 373.640625 489.804688 375.410156 490.699219 374.976562 492.277344 " fill-opacity="1" fill-rule="nonzero"/><path fill="rgb(25.099182%, 73.329163%, 41.569519%)" d="M 353.167969 414.761719 C 349.851562 403.488281 348.574219 398.132812 345.027344 388.476562 C 341.585938 379.117188 321.640625 364.722656 308.761719 365.652344 C 307.976562 365.707031 307.105469 365.976562 306.4375 365.257812 C 306.832031 362.644531 324.714844 362.921875 339.054688 374.992188 C 338.359375 372.847656 333.277344 364.550781 332.417969 363.179688 C 325.78125 352.640625 321.203125 350.824219 319.527344 345.316406 C 320.757812 344.261719 322.253906 345.238281 323.300781 346.460938 C 325.820312 349.394531 328.828125 351.816406 331.683594 354.394531 C 334.347656 356.800781 336.011719 359.273438 339.210938 362.847656 C 340.921875 356.234375 337.882812 343.222656 337.753906 342.128906 C 343.363281 338.410156 344.816406 354.878906 342.101562 365.480469 C 342.007812 365.851562 341.988281 366.238281 341.910156 366.765625 C 346.90625 373.757812 350.425781 381.613281 353.59375 389.8125 C 354.457031 387.21875 356.449219 368.167969 354.535156 358.160156 C 355.386719 357.25 356.1875 357.3125 357.140625 357.785156 C 363.464844 370.925781 357.613281 390.371094 356.714844 394.253906 C 357.601562 398.179688 362.285156 408.78125 365.726562 444.710938 C 366.660156 454.429688 362.457031 453.789062 361.273438 448.9375 C 360.5625 445.996094 358.039062 428.625 349.617188 419.960938 C 332.242188 402.089844 323.28125 397.449219 313.796875 393.945312 C 313.214844 393.726562 312.441406 393.839844 312.132812 392.996094 C 313.542969 390.265625 337.105469 396.730469 351.980469 414.117188 C 352.269531 414.457031 352.496094 415.046875 353.15625 414.734375 C 353.15625 414.734375 353.070312 414.792969 353.070312 414.792969 L 353.167969 414.761719 " fill-opacity="1" fill-rule="nonzero"/><g fill="rgb(0%, 50.19989%, 21.569824%)" fill-opacity="1"><g transform="translate(282.971246, 673.458235)"><g><path d="M 29.585938 -27.839844 C 29.789062 -28.984375 30.703125 -28.929688 30.992188 -29.695312 C 31.824219 -33.4375 33.132812 -32.707031 33.082031 -35.0625 C 33.027344 -37.71875 35.332031 -36.550781 35.449219 -38.152344 C 35.507812 -38.914062 35.402344 -40.277344 36.007812 -40.519531 C 37.289062 -40.925781 36.71875 -42.890625 38.292969 -43.914062 C 38.519531 -43.992188 39.59375 -47.058594 39.582031 -47.511719 C 39.570312 -48.042969 38.425781 -48.25 37.972656 -48.238281 C 36.90625 -48.214844 34.824219 -46.042969 34.683594 -45.660156 C 33.160156 -42.132812 31.042969 -37.980469 29.277344 -35.285156 C 28.6875 -34.359375 28.945312 -33.074219 28.351562 -32.300781 C 27.171875 -30.601562 28.789062 -26 25.292969 -25.925781 C 25.3125 -25.089844 25.328125 -24.40625 25.34375 -23.570312 C 25.371094 -22.277344 23.324219 -22.160156 22.824219 -20.476562 C 21.898438 -17.644531 19.71875 -9.3125 17.96875 -9.273438 C 17.210938 -9.257812 17.25 -10.933594 17.25 -11.007812 C 17.1875 -13.972656 15.503906 -14.542969 15.480469 -15.53125 C 15.453125 -16.824219 15.273438 -18.113281 15.246094 -19.480469 C 14.089844 -20.289062 14.15625 -20.671875 14.136719 -21.660156 C 14.117188 -22.417969 14.332031 -23.109375 14.316406 -23.867188 C 14.296875 -24.78125 13.519531 -25.523438 13.5 -26.511719 C 13.488281 -27.042969 13.628906 -27.65625 13.617188 -28.1875 C 13.59375 -29.175781 13.046875 -30 13.023438 -31.0625 C 12.980469 -33.039062 12.929688 -35.46875 11.984375 -37.121094 C 11.90625 -37.195312 11.824219 -37.347656 11.824219 -37.5 C 11.8125 -37.953125 12.257812 -38.496094 12.246094 -38.953125 C 12.242188 -39.179688 12.164062 -39.40625 12.082031 -39.554688 C 10.96875 -41.890625 11.597656 -44.488281 10.789062 -46.824219 C 9.496094 -50.371094 9.914062 -55.777344 5.726562 -56.144531 C 4.738281 -56.125 2.617188 -55.699219 2.636719 -54.785156 C 2.738281 -50 3.550781 -43.9375 4.3125 -40.304688 C 4.859375 -39.628906 4.726562 -38.714844 4.734375 -38.410156 C 4.75 -37.726562 5.746094 -37.367188 5.757812 -36.683594 C 5.777344 -35.773438 5.347656 -34.546875 5.382812 -32.875 C 5.402344 -31.964844 5.574219 -31.132812 6.273438 -30.386719 C 6.582031 -30.089844 6.882812 -26.75 6.980469 -25.613281 C 7.179688 -23.414062 7.074219 -21.28125 8.257812 -19.253906 C 9.519531 -17 9.375 -16.695312 9.804688 -14.421875 C 10.070312 -12.605469 11.035156 -10.191406 11.058594 -8.976562 C 11.121094 -6.011719 13.589844 -4.316406 13.652344 -1.355469 C 13.734375 2.519531 18.300781 2.652344 18.300781 2.652344 C 18.605469 2.644531 18.828125 2.414062 19.128906 2.40625 C 19.511719 2.398438 19.742188 2.621094 20.125 2.613281 C 20.730469 2.601562 21.242188 1.675781 22.152344 1.507812 C 24.195312 1.082031 24.332031 0.394531 24.589844 -1.890625 C 24.558594 -3.257812 26 -3.515625 26.121094 -4.8125 C 26.101562 -5.800781 26.839844 -6.878906 26.816406 -8.019531 C 26.808594 -8.246094 26.804688 -8.472656 26.722656 -8.699219 C 26.703125 -9.6875 27.597656 -10.621094 27.546875 -12.898438 C 27.507812 -14.796875 28.84375 -16.347656 28.808594 -17.867188 C 28.78125 -19.160156 27.4375 -18.066406 27.390625 -20.34375 C 27.375 -21.027344 27.363281 -21.636719 27.667969 -21.644531 C 28.121094 -21.652344 28.015625 -19.523438 28.546875 -19.535156 C 28.621094 -19.535156 28.847656 -19.617188 28.847656 -19.769531 C 28.6875 -20.144531 28.601562 -20.523438 28.59375 -20.902344 C 28.566406 -22.117188 29.761719 -23.132812 29.707031 -25.792969 C 29.695312 -26.324219 28.632812 -26.222656 28.625 -26.527344 C 28.625 -26.679688 29.292969 -27.453125 29.585938 -27.839844 Z M 33.726562 -40.472656 C 33.730469 -40.394531 33.65625 -40.316406 33.65625 -40.242188 C 33.578125 -40.390625 33.5 -40.542969 33.421875 -40.617188 C 33.417969 -40.691406 33.492188 -40.769531 33.566406 -40.847656 C 33.796875 -40.851562 33.652344 -40.394531 33.726562 -40.472656 Z M 27.742188 -25.21875 C 27.820312 -25.066406 27.980469 -24.765625 27.980469 -24.691406 C 27.984375 -24.613281 27.832031 -24.535156 27.757812 -24.535156 C 27.605469 -24.53125 27.597656 -24.910156 27.59375 -25.0625 C 27.59375 -25.136719 27.742188 -25.21875 27.742188 -25.21875 Z M 30.914062 -33.34375 C 30.765625 -33.1875 30.765625 -33.109375 30.539062 -33.105469 C 30.386719 -33.101562 30.230469 -33.25 30.226562 -33.480469 C 30.222656 -33.632812 30.222656 -33.707031 30.371094 -33.863281 C 30.75 -33.871094 30.992188 -33.269531 30.914062 -33.34375 Z M 30.914062 -33.34375 "/></g></g></g><g fill="rgb(0%, 50.19989%, 21.569824%)" fill-opacity="1"><g transform="translate(323.544024, 672.597219)"><g><path d="M 14.09375 -9.269531 C 13.925781 -10.101562 13.839844 -10.480469 13.832031 -10.9375 C 13.820312 -11.390625 14.402344 -12.695312 14.378906 -13.683594 C 14.367188 -14.292969 13.976562 -14.890625 13.960938 -15.5 C 13.957031 -15.726562 14.027344 -16.03125 14.019531 -16.335938 C 14.011719 -16.714844 13.625 -17.089844 13.617188 -17.390625 C 13.609375 -17.847656 14.054688 -18.3125 14.042969 -18.769531 C 14.023438 -19.757812 13.773438 -20.742188 13.75 -21.878906 C 13.640625 -26.96875 25.984375 -22.140625 25.859375 -28.066406 C 25.820312 -29.890625 22.925781 -30.132812 20.113281 -30.074219 C 18.136719 -30.03125 16.316406 -29.839844 15.332031 -29.820312 C 13.355469 -29.777344 13.117188 -30.304688 13.0625 -32.734375 C 13.042969 -33.648438 13.175781 -34.5625 13.160156 -35.398438 C 13.074219 -39.425781 12.609375 -43.445312 12.523438 -47.546875 C 12.511719 -48.078125 13.109375 -48.546875 13.640625 -48.558594 C 19.890625 -47.777344 26.203125 -47.609375 32.433594 -47.742188 C 33.71875 -47.996094 34.472656 -48.394531 34.460938 -48.847656 C 34.453125 -49.226562 34.140625 -49.753906 34.128906 -50.132812 C 34.121094 -50.515625 34.191406 -50.820312 34.183594 -51.199219 C 34.136719 -53.480469 30.863281 -53.636719 28.964844 -53.597656 C 28.507812 -53.585938 27.980469 -53.425781 27.523438 -53.414062 C 24.636719 -53.351562 21.816406 -53.671875 18.929688 -53.613281 C 18.398438 -53.601562 17.867188 -53.511719 17.335938 -53.503906 C 16.425781 -53.484375 15.65625 -53.847656 14.820312 -53.828125 C 14.363281 -53.820312 13.835938 -53.730469 13.378906 -53.722656 C 12.316406 -53.699219 9.042969 -53.933594 7.203125 -54.65625 C 7.125 -54.652344 7.046875 -54.726562 6.972656 -54.726562 C 5.375 -54.691406 5.222656 -47.695312 5.265625 -45.644531 C 5.277344 -45.113281 5.363281 -44.507812 5.375 -43.972656 C 5.410156 -42.378906 5.152344 -40.246094 5.179688 -38.953125 C 5.195312 -38.195312 5.589844 -37.441406 5.609375 -36.605469 C 5.617188 -36.226562 5.320312 -35.839844 5.328125 -35.460938 C 5.335938 -35.078125 5.421875 -34.703125 5.429688 -34.246094 C 5.441406 -33.636719 5.226562 -33.023438 5.242188 -32.339844 C 5.253906 -31.734375 5.347656 -31.050781 5.433594 -30.445312 C 5.453125 -29.609375 4.703125 -29.0625 4.71875 -28.453125 C 4.742188 -27.3125 5.984375 -25.972656 6.007812 -24.984375 C 6.019531 -24.453125 5.425781 -23.753906 5.4375 -23.222656 C 5.488281 -20.792969 5.691406 -18.363281 5.742188 -15.933594 C 5.746094 -15.703125 5.675781 -15.476562 5.679688 -15.246094 C 5.699219 -14.488281 6.242188 -13.890625 6.257812 -13.207031 C 5.738281 -12.664062 5.484375 -10.226562 5.484375 -10.300781 C 5.589844 -5.210938 6.011719 0.253906 10.039062 0.167969 C 14.667969 -0.160156 19.292969 -0.636719 23.777344 -0.734375 C 25.90625 -0.777344 28.113281 -0.519531 30.242188 -0.566406 C 32.292969 -0.609375 33.808594 -0.792969 33.746094 -3.757812 C 33.707031 -5.582031 30.132812 -5.734375 27.925781 -5.835938 C 27.550781 -5.601562 27.171875 -5.519531 26.792969 -5.507812 C 26.414062 -5.5 26.105469 -5.570312 25.726562 -5.5625 C 22.765625 -5.5 19.203125 -4.890625 16.847656 -4.84375 C 15.859375 -4.820312 14.796875 -4.875 14.785156 -5.40625 C 14.765625 -6.242188 15.429688 -7.246094 15.417969 -7.851562 C 15.398438 -8.6875 14.710938 -8.824219 14.09375 -9.269531 Z M 9.777344 -12.140625 C 9.242188 -12.28125 9.003906 -12.65625 8.996094 -13.113281 C 8.992188 -13.339844 9.054688 -13.875 9.433594 -13.882812 C 9.816406 -13.890625 9.980469 -13.210938 9.988281 -12.980469 C 9.992188 -12.679688 9.921875 -12.371094 9.777344 -12.066406 C 10.15625 -12.074219 10.328125 -11.164062 10.332031 -11.011719 C 10.339844 -10.710938 10.191406 -10.476562 9.976562 -9.941406 C 9.738281 -10.394531 9.574219 -10.84375 9.566406 -11.300781 C 9.5625 -11.527344 9.628906 -11.835938 9.777344 -12.140625 Z M 12.25 -17.363281 C 11.859375 -17.886719 11.699219 -18.1875 11.691406 -18.566406 C 11.6875 -18.796875 11.753906 -19.253906 12.125 -19.71875 C 12.511719 -19.34375 12.519531 -18.964844 12.527344 -18.660156 C 12.53125 -18.433594 12.464844 -18.050781 12.25 -17.363281 Z M 9.160156 -30.371094 C 8.84375 -30.972656 8.683594 -31.425781 8.671875 -31.957031 C 8.667969 -32.1875 8.652344 -32.792969 8.882812 -32.796875 C 8.957031 -32.800781 9.265625 -32.65625 9.265625 -32.578125 C 9.203125 -31.894531 9.222656 -31.132812 9.160156 -30.371094 Z M 11.292969 -33.761719 C 11.136719 -33.988281 10.980469 -34.210938 10.972656 -34.515625 C 10.972656 -34.589844 10.964844 -34.972656 11.191406 -34.976562 C 11.421875 -34.980469 11.574219 -34.832031 11.582031 -34.453125 C 11.589844 -34.222656 11.515625 -33.996094 11.292969 -33.761719 Z M 8.894531 -21.398438 C 8.746094 -21.242188 8.902344 -21.09375 8.675781 -21.089844 C 8.597656 -21.085938 8.519531 -21.238281 8.515625 -21.390625 C 8.589844 -21.464844 8.664062 -21.542969 8.742188 -21.546875 C 8.742188 -21.546875 8.816406 -21.472656 8.894531 -21.398438 Z M 11.515625 -30.5 C 11.441406 -30.421875 11.367188 -30.34375 11.367188 -30.34375 C 11.289062 -30.417969 11.210938 -30.566406 11.128906 -30.71875 C 11.128906 -30.71875 11.277344 -30.875 11.277344 -30.875 C 11.433594 -30.800781 11.511719 -30.648438 11.515625 -30.5 Z M 7.792969 -12.554688 C 7.640625 -12.550781 7.5625 -12.550781 7.558594 -12.703125 C 7.558594 -12.777344 7.632812 -12.78125 7.632812 -12.78125 C 7.785156 -12.785156 7.789062 -12.632812 7.792969 -12.554688 Z M 7.792969 -12.554688 "/></g></g></g><g fill="rgb(0%, 50.19989%, 21.569824%)" fill-opacity="1"><g transform="translate(359.026208, 671.844234)"><g><path d="M 23.765625 2.230469 C 23.992188 2.226562 24.222656 2.296875 24.375 2.296875 C 25.816406 2.265625 24.949219 0.6875 26.074219 0.0546875 C 29.003906 -1.527344 28.707031 -4.789062 30.800781 -6.429688 C 30.652344 -6.351562 34.011719 -12.730469 35.464844 -15.957031 C 37.417969 -16.984375 39.550781 -16.726562 41.828125 -17.003906 C 42.347656 -17.546875 43.46875 -18.480469 43.457031 -18.9375 C 43.4375 -20 42.21875 -20.128906 41 -20.101562 C 39.863281 -20.078125 39.101562 -19.984375 38.269531 -19.96875 C 37.886719 -19.960938 37.507812 -20.027344 37.121094 -20.246094 C 37.332031 -21.164062 37.230469 -22.300781 37.746094 -22.996094 C 38.414062 -23.773438 40.234375 -34.832031 40.308594 -34.832031 C 40.210938 -39.46875 38.347656 -41.328125 35.609375 -41.273438 C 34.925781 -41.257812 34.101562 -40.785156 33.417969 -40.769531 C 33.191406 -40.765625 32.960938 -40.835938 32.808594 -40.832031 C 31.59375 -40.804688 29.601562 -37.953125 28.402344 -37.164062 C 22.328125 -33.234375 15.832031 -27.625 10.464844 -26.296875 C 9.78125 -26.28125 9.148438 -27.484375 9.132812 -28.167969 C 9.101562 -29.6875 10.347656 -31.839844 10.3125 -33.359375 C 10.273438 -35.261719 11.109375 -35.277344 11.464844 -36.503906 C 11.703125 -39.546875 15.03125 -43.953125 16.960938 -46.042969 C 19.265625 -48.601562 22.550781 -51.332031 25.285156 -51.390625 C 27.640625 -51.441406 30.125 -48.984375 31.644531 -49.015625 C 32.328125 -49.03125 33.613281 -49.4375 33.597656 -50.273438 C 33.535156 -53.085938 29.644531 -53.839844 27.644531 -54.859375 C 25.957031 -55.660156 24.335938 -56.765625 22.359375 -56.800781 C 21.902344 -56.792969 21.4375 -57.3125 21.054688 -57.304688 C 20.296875 -57.289062 20.316406 -56.378906 18.566406 -56.339844 C 17.199219 -56.3125 17.453125 -55.101562 16.550781 -54.703125 C 15.722656 -54.304688 14.128906 -54.117188 13.921875 -53.203125 C 13.566406 -51.976562 9.953125 -50.304688 9.59375 -49.460938 C 9.085938 -48.234375 8.242188 -48.671875 8.039062 -47.453125 C 8.046875 -46.996094 7.828125 -46.609375 7.449219 -46.527344 C 6.46875 -46.125 6.945312 -45.222656 6.734375 -44.460938 C 5.765625 -43.601562 4.414062 -42.660156 4.441406 -41.523438 C 4.449219 -41.066406 4.761719 -40.691406 4.773438 -40.085938 C 2.320312 -37.523438 2.753906 -34.949219 1.976562 -32.195312 C 1.691406 -31.277344 1.257812 -30.355469 1.277344 -29.367188 C 1.28125 -29.140625 1.359375 -28.992188 1.367188 -28.761719 C 1.378906 -28.15625 0.933594 -27.6875 0.945312 -27.15625 C 1.019531 -23.585938 5.695312 -21.710938 5.695312 -21.785156 C 6.398438 -20.8125 8.160156 -20.316406 8.84375 -20.332031 C 9.527344 -20.347656 10.128906 -20.664062 10.734375 -20.675781 C 11.191406 -20.683594 11.511719 -19.933594 11.890625 -19.941406 C 12.121094 -19.945312 12.269531 -20.023438 12.492188 -20.257812 C 12.722656 -20.1875 12.953125 -20.113281 13.179688 -20.121094 C 15.003906 -20.15625 16.867188 -21.871094 17.476562 -21.882812 C 18.996094 -21.914062 21.65625 -25.390625 22.320312 -26.320312 C 22.914062 -27.089844 23.976562 -27.113281 24.269531 -27.726562 C 24.625 -28.875 26.566406 -30.4375 26.871094 -30.445312 C 27.097656 -30.449219 27.410156 -30.074219 27.640625 -30.082031 C 28.09375 -30.089844 29.351562 -31.710938 30.09375 -32.566406 C 30.574219 -31.511719 31.355469 -30.464844 31.390625 -28.792969 C 31.410156 -27.878906 30.976562 -26.882812 30.996094 -25.96875 C 31.007812 -25.285156 31.175781 -24.605469 31.1875 -24 C 31.214844 -22.78125 30.515625 -19.957031 29.640625 -18.1875 C 23.84375 -15.480469 20.476562 -12.976562 15.808594 -7.328125 C 13.585938 -4.621094 10.640625 0.00390625 10.710938 3.195312 C 10.773438 6.15625 14.882812 6.375 16.097656 6.347656 C 17.617188 6.316406 19.441406 6.277344 20.628906 4.960938 C 21.820312 3.71875 22.308594 5.378906 23.765625 2.230469 Z M 22.144531 1.203125 C 20.246094 1.242188 18.753906 2.640625 17.007812 2.679688 C 16.628906 2.6875 15.945312 2.703125 15.710938 2.402344 C 15.960938 -3.757812 22.90625 -9.53125 25.441406 -11.867188 C 26.335938 -12.722656 27.753906 -13.890625 28.589844 -13.910156 C 29.046875 -13.917969 29.359375 -13.546875 29.367188 -13.164062 C 29.230469 -12.480469 29.089844 -11.867188 28.875 -11.253906 C 29.027344 -11.257812 29.105469 -11.183594 29.105469 -11.109375 C 29.03125 -11.105469 29.027344 -11.183594 28.949219 -11.332031 C 28.203125 -10.632812 27.996094 -9.714844 28.015625 -8.726562 C 28.027344 -8.273438 28.113281 -7.816406 28.121094 -7.285156 C 26.332031 -5.726562 25.15625 -3.726562 24.527344 -1.28125 C 23.476562 -0.5 22.804688 -0.0273438 22.066406 1.128906 C 22.144531 1.125 22.21875 1.125 22.292969 1.046875 C 22.21875 0.972656 22.21875 0.972656 22.140625 0.972656 C 22.140625 0.972656 22.066406 0.976562 22.066406 1.050781 C 22.066406 1.128906 22.144531 1.125 22.144531 1.203125 Z M 30.421875 -13.492188 C 30.347656 -13.414062 30.351562 -13.339844 30.273438 -13.335938 C 30.273438 -13.414062 30.195312 -13.488281 30.195312 -13.488281 C 30.195312 -13.5625 30.269531 -13.640625 30.34375 -13.71875 C 30.34375 -13.640625 30.421875 -13.566406 30.421875 -13.492188 Z M 30.421875 -13.492188 "/></g></g></g><g fill="rgb(0%, 50.19989%, 21.569824%)" fill-opacity="1"><g transform="translate(404.385657, 670.881638)"><g><path d="M 23.765625 2.230469 C 23.992188 2.226562 24.222656 2.296875 24.375 2.296875 C 25.816406 2.265625 24.949219 0.6875 26.074219 0.0546875 C 29.003906 -1.527344 28.707031 -4.789062 30.800781 -6.429688 C 30.652344 -6.351562 34.011719 -12.730469 35.464844 -15.957031 C 37.417969 -16.984375 39.550781 -16.726562 41.828125 -17.003906 C 42.347656 -17.546875 43.46875 -18.480469 43.457031 -18.9375 C 43.4375 -20 42.21875 -20.128906 41 -20.101562 C 39.863281 -20.078125 39.101562 -19.984375 38.269531 -19.96875 C 37.886719 -19.960938 37.507812 -20.027344 37.121094 -20.246094 C 37.332031 -21.164062 37.230469 -22.300781 37.746094 -22.996094 C 38.414062 -23.773438 40.234375 -34.832031 40.308594 -34.832031 C 40.210938 -39.46875 38.347656 -41.328125 35.609375 -41.273438 C 34.925781 -41.257812 34.101562 -40.785156 33.417969 -40.769531 C 33.191406 -40.765625 32.960938 -40.835938 32.808594 -40.832031 C 31.59375 -40.804688 29.601562 -37.953125 28.402344 -37.164062 C 22.328125 -33.234375 15.832031 -27.625 10.464844 -26.296875 C 9.78125 -26.28125 9.148438 -27.484375 9.132812 -28.167969 C 9.101562 -29.6875 10.347656 -31.839844 10.3125 -33.359375 C 10.273438 -35.261719 11.109375 -35.277344 11.464844 -36.503906 C 11.703125 -39.546875 15.03125 -43.953125 16.960938 -46.042969 C 19.265625 -48.601562 22.550781 -51.332031 25.285156 -51.390625 C 27.640625 -51.441406 30.125 -48.984375 31.644531 -49.015625 C 32.328125 -49.03125 33.613281 -49.4375 33.597656 -50.273438 C 33.535156 -53.085938 29.644531 -53.839844 27.644531 -54.859375 C 25.957031 -55.660156 24.335938 -56.765625 22.359375 -56.800781 C 21.902344 -56.792969 21.4375 -57.3125 21.054688 -57.304688 C 20.296875 -57.289062 20.316406 -56.378906 18.566406 -56.339844 C 17.199219 -56.3125 17.453125 -55.101562 16.550781 -54.703125 C 15.722656 -54.304688 14.128906 -54.117188 13.921875 -53.203125 C 13.566406 -51.976562 9.953125 -50.304688 9.59375 -49.460938 C 9.085938 -48.234375 8.242188 -48.671875 8.039062 -47.453125 C 8.046875 -46.996094 7.828125 -46.609375 7.449219 -46.527344 C 6.46875 -46.125 6.945312 -45.222656 6.734375 -44.460938 C 5.765625 -43.601562 4.414062 -42.660156 4.441406 -41.523438 C 4.449219 -41.066406 4.761719 -40.691406 4.773438 -40.085938 C 2.320312 -37.523438 2.753906 -34.949219 1.976562 -32.195312 C 1.691406 -31.277344 1.257812 -30.355469 1.277344 -29.367188 C 1.28125 -29.140625 1.359375 -28.992188 1.367188 -28.761719 C 1.378906 -28.15625 0.933594 -27.6875 0.945312 -27.15625 C 1.019531 -23.585938 5.695312 -21.710938 5.695312 -21.785156 C 6.398438 -20.8125 8.160156 -20.316406 8.84375 -20.332031 C 9.527344 -20.347656 10.128906 -20.664062 10.734375 -20.675781 C 11.191406 -20.683594 11.511719 -19.933594 11.890625 -19.941406 C 12.121094 -19.945312 12.269531 -20.023438 12.492188 -20.257812 C 12.722656 -20.1875 12.953125 -20.113281 13.179688 -20.121094 C 15.003906 -20.15625 16.867188 -21.871094 17.476562 -21.882812 C 18.996094 -21.914062 21.65625 -25.390625 22.320312 -26.320312 C 22.914062 -27.089844 23.976562 -27.113281 24.269531 -27.726562 C 24.625 -28.875 26.566406 -30.4375 26.871094 -30.445312 C 27.097656 -30.449219 27.410156 -30.074219 27.640625 -30.082031 C 28.09375 -30.089844 29.351562 -31.710938 30.09375 -32.566406 C 30.574219 -31.511719 31.355469 -30.464844 31.390625 -28.792969 C 31.410156 -27.878906 30.976562 -26.882812 30.996094 -25.96875 C 31.007812 -25.285156 31.175781 -24.605469 31.1875 -24 C 31.214844 -22.78125 30.515625 -19.957031 29.640625 -18.1875 C 23.84375 -15.480469 20.476562 -12.976562 15.808594 -7.328125 C 13.585938 -4.621094 10.640625 0.00390625 10.710938 3.195312 C 10.773438 6.15625 14.882812 6.375 16.097656 6.347656 C 17.617188 6.316406 19.441406 6.277344 20.628906 4.960938 C 21.820312 3.71875 22.308594 5.378906 23.765625 2.230469 Z M 22.144531 1.203125 C 20.246094 1.242188 18.753906 2.640625 17.007812 2.679688 C 16.628906 2.6875 15.945312 2.703125 15.710938 2.402344 C 15.960938 -3.757812 22.90625 -9.53125 25.441406 -11.867188 C 26.335938 -12.722656 27.753906 -13.890625 28.589844 -13.910156 C 29.046875 -13.917969 29.359375 -13.546875 29.367188 -13.164062 C 29.230469 -12.480469 29.089844 -11.867188 28.875 -11.253906 C 29.027344 -11.257812 29.105469 -11.183594 29.105469 -11.109375 C 29.03125 -11.105469 29.027344 -11.183594 28.949219 -11.332031 C 28.203125 -10.632812 27.996094 -9.714844 28.015625 -8.726562 C 28.027344 -8.273438 28.113281 -7.816406 28.121094 -7.285156 C 26.332031 -5.726562 25.15625 -3.726562 24.527344 -1.28125 C 23.476562 -0.5 22.804688 -0.0273438 22.066406 1.128906 C 22.144531 1.125 22.21875 1.125 22.292969 1.046875 C 22.21875 0.972656 22.21875 0.972656 22.140625 0.972656 C 22.140625 0.972656 22.066406 0.976562 22.066406 1.050781 C 22.066406 1.128906 22.144531 1.125 22.144531 1.203125 Z M 30.421875 -13.492188 C 30.347656 -13.414062 30.351562 -13.339844 30.273438 -13.335938 C 30.273438 -13.414062 30.195312 -13.488281 30.195312 -13.488281 C 30.195312 -13.5625 30.269531 -13.640625 30.34375 -13.71875 C 30.34375 -13.640625 30.421875 -13.566406 30.421875 -13.492188 Z M 30.421875 -13.492188 "/></g></g></g><g fill="rgb(0%, 50.19989%, 21.569824%)" fill-opacity="1"><g transform="translate(449.745107, 669.919042)"><g><path d="M 44.300781 -4.359375 C 44.300781 -4.359375 44.375 -4.363281 44.378906 -4.285156 C 44.378906 -4.285156 44.226562 -4.28125 44.226562 -4.28125 C 44.460938 -3.90625 44.769531 -3.761719 45.148438 -3.769531 C 45.527344 -3.777344 46.058594 -3.867188 46.046875 -4.398438 C 46.03125 -5.15625 44.507812 -5.277344 44.492188 -5.960938 C 44.484375 -6.339844 46.605469 -6.84375 46.582031 -7.90625 C 46.566406 -8.589844 44.664062 -8.625 44.65625 -9.082031 C 44.402344 -10.214844 42.640625 -10.863281 42.1875 -10.851562 C 40.96875 -10.828125 39.6875 -10.421875 38.394531 -10.394531 C 34.828125 -10.089844 31.105469 -10.011719 27.703125 -9.101562 C 25.738281 -8.527344 23.691406 -8.410156 21.644531 -8.136719 C 20.730469 -8.117188 20.261719 -8.792969 19.425781 -8.773438 C 19.199219 -8.769531 18.894531 -8.6875 18.667969 -8.683594 C 18.363281 -8.675781 17.605469 -8.660156 17.59375 -9.191406 C 17.585938 -9.417969 17.65625 -9.722656 17.652344 -9.953125 C 17.640625 -10.484375 17.480469 -10.859375 16.867188 -11.152344 L 16.871094 -11 C 17.011719 -11.535156 17.070312 -12.296875 17.054688 -13.054688 C 17.050781 -13.285156 18.007812 -14.75 18.140625 -15.589844 C 18.265625 -16.882812 18.851562 -17.882812 19.511719 -18.960938 C 19.195312 -19.640625 18.558594 -20.917969 18.546875 -21.449219 C 18.535156 -22.132812 19.28125 -22.757812 19.273438 -23.0625 C 19.269531 -23.214844 18.574219 -23.730469 18.566406 -24.109375 C 18.570312 -23.957031 21.167969 -26.902344 21.019531 -26.746094 C 21.09375 -26.902344 21.242188 -27.132812 21.238281 -27.207031 C 21.082031 -27.433594 21 -27.660156 20.996094 -27.886719 C 20.980469 -28.722656 21.539062 -30.9375 21.613281 -31.015625 C 22.203125 -31.941406 22.320312 -33.617188 22.28125 -35.363281 C 22.21875 -38.402344 21.863281 -40.675781 21.8125 -43.183594 C 21.800781 -43.640625 21.945312 -44.097656 22.25 -44.105469 C 22.554688 -44.035156 22.859375 -44.042969 23.238281 -44.050781 C 25.441406 -44.097656 27.226562 -45.882812 27.683594 -45.890625 C 27.988281 -45.898438 28.3125 -44.917969 29 -44.78125 C 29.992188 -44.574219 30.828125 -44.515625 31.742188 -44.535156 C 33.414062 -44.570312 33.238281 -45.707031 33.617188 -45.714844 C 34.222656 -45.726562 35.824219 -45.53125 36.660156 -45.550781 C 38.558594 -45.589844 39.582031 -47.511719 39.546875 -49.183594 C 38.910156 -50.539062 37.914062 -50.972656 36.015625 -50.933594 C 35.710938 -50.925781 35.484375 -50.847656 35.257812 -50.84375 C 33.507812 -50.804688 31.824219 -51.378906 29.847656 -51.335938 C 29.164062 -51.320312 28.40625 -51.152344 27.648438 -51.136719 C 26.738281 -51.117188 25.886719 -51.78125 24.972656 -51.765625 C 24.140625 -51.746094 23.3125 -51.347656 22.476562 -51.332031 C 20.804688 -51.296875 19.046875 -51.636719 17.300781 -51.601562 C 16.238281 -51.578125 15.101562 -51.25 14.039062 -51.226562 C 13.507812 -51.214844 12.894531 -51.507812 12.363281 -51.496094 C 11.90625 -51.488281 11.378906 -51.171875 10.847656 -51.160156 C 9.632812 -51.132812 8.328125 -51.714844 6.882812 -51.683594 C 6.582031 -51.675781 6.203125 -51.59375 5.898438 -51.511719 C 3.996094 -51.621094 2.167969 -51.8125 0.269531 -51.773438 C -0.488281 -51.753906 -0.625 -50.917969 -0.613281 -50.460938 C -0.597656 -49.699219 0.527344 -46.835938 0.605469 -46.761719 C 2.722656 -43.691406 3.925781 -44.171875 10.394531 -43.929688 C 12.753906 -43.828125 13.214844 -43.609375 13.292969 -39.886719 C 13.3125 -38.972656 12.410156 -38.421875 12.429688 -37.585938 C 12.441406 -37.054688 12.679688 -36.605469 12.6875 -36.070312 C 12.710938 -35.085938 12.425781 -34.089844 12.449219 -33.101562 C 12.464844 -32.265625 12.789062 -31.363281 13.183594 -30.609375 C 12.519531 -29.757812 11.851562 -28.910156 11.871094 -28.074219 C 11.882812 -27.542969 12.347656 -27.019531 12.359375 -26.5625 C 12.371094 -25.957031 11.25 -25.171875 11.269531 -24.183594 C 11.289062 -23.273438 11.6875 -22.367188 11.699219 -21.914062 C 11.714844 -21.152344 10.773438 -18.851562 10.65625 -17.253906 C 10.210938 -13.140625 10 -8.726562 10.070312 -5.382812 C 7.070312 -3.496094 3.5625 -4.027344 0.25 -2.515625 C -1.179688 -1.800781 -3.828125 -1.210938 -3.804688 -0.222656 C -3.789062 0.613281 -0.527344 3.8125 -0.527344 3.8125 C 0.0117188 4.105469 1.84375 4.445312 2.527344 4.429688 C 3.8125 4.101562 5.40625 4.066406 6.605469 3.28125 C 7.65625 2.574219 13.25 1.085938 13.78125 1.074219 C 14.160156 1.066406 14.542969 1.136719 14.847656 1.128906 C 16.0625 1.101562 16.722656 -0.0507812 17.558594 -0.0703125 C 17.863281 -0.0742188 18.167969 0.0703125 18.472656 0.0625 C 19.535156 0.0429688 20.433594 -0.738281 21.570312 -0.761719 C 22.789062 -0.789062 23.902344 -2.027344 24.890625 -2.046875 C 25.191406 -2.054688 25.5 -1.984375 25.726562 -1.992188 C 25.878906 -1.992188 25.953125 -2.070312 26.105469 -2.074219 C 26.484375 -2.082031 26.652344 -1.402344 27.183594 -1.414062 C 28.476562 -1.441406 31.035156 -2.558594 31.796875 -2.574219 C 32.480469 -2.589844 33.164062 -2.527344 33.761719 -2.996094 C 33.992188 -3 34.144531 -2.929688 34.371094 -2.933594 C 35.816406 -2.964844 37.316406 -3.910156 38.683594 -3.9375 C 39.671875 -3.957031 40.292969 -3.363281 41.050781 -3.378906 C 42.191406 -3.402344 43.15625 -4.566406 43.460938 -4.570312 C 43.613281 -4.574219 43.839844 -4.503906 44.300781 -4.359375 Z M 32.40625 -45.382812 C 32.332031 -45.382812 32.328125 -45.457031 32.328125 -45.535156 C 32.40625 -45.460938 32.40625 -45.460938 32.40625 -45.382812 C 32.101562 -45.378906 31.726562 -45.292969 31.34375 -45.285156 C 31.269531 -45.285156 31.191406 -45.359375 31.113281 -45.433594 C 31.109375 -45.585938 31.183594 -45.8125 31.332031 -45.816406 C 31.636719 -45.824219 32.023438 -45.527344 32.40625 -45.382812 Z M 17.664062 -23.710938 C 17.4375 -23.707031 16.832031 -23.617188 16.824219 -23.921875 C 16.820312 -24.148438 17.042969 -24.304688 17.273438 -24.3125 C 17.5 -24.316406 17.503906 -24.164062 17.664062 -23.710938 Z M 17.664062 -23.710938 "/></g></g></g><g fill="rgb(0%, 50.19989%, 21.569824%)" fill-opacity="1"><g transform="translate(492.673246, 669.008042)"><g><path d="M 14.09375 -9.269531 C 13.925781 -10.101562 13.839844 -10.480469 13.832031 -10.9375 C 13.820312 -11.390625 14.402344 -12.695312 14.378906 -13.683594 C 14.367188 -14.292969 13.976562 -14.890625 13.960938 -15.5 C 13.957031 -15.726562 14.027344 -16.03125 14.019531 -16.335938 C 14.011719 -16.714844 13.625 -17.089844 13.617188 -17.390625 C 13.609375 -17.847656 14.054688 -18.3125 14.042969 -18.769531 C 14.023438 -19.757812 13.773438 -20.742188 13.75 -21.878906 C 13.640625 -26.96875 25.984375 -22.140625 25.859375 -28.066406 C 25.820312 -29.890625 22.925781 -30.132812 20.113281 -30.074219 C 18.136719 -30.03125 16.316406 -29.839844 15.332031 -29.820312 C 13.355469 -29.777344 13.117188 -30.304688 13.0625 -32.734375 C 13.042969 -33.648438 13.175781 -34.5625 13.160156 -35.398438 C 13.074219 -39.425781 12.609375 -43.445312 12.523438 -47.546875 C 12.511719 -48.078125 13.109375 -48.546875 13.640625 -48.558594 C 19.890625 -47.777344 26.203125 -47.609375 32.433594 -47.742188 C 33.71875 -47.996094 34.472656 -48.394531 34.460938 -48.847656 C 34.453125 -49.226562 34.140625 -49.753906 34.128906 -50.132812 C 34.121094 -50.515625 34.191406 -50.820312 34.183594 -51.199219 C 34.136719 -53.480469 30.863281 -53.636719 28.964844 -53.597656 C 28.507812 -53.585938 27.980469 -53.425781 27.523438 -53.414062 C 24.636719 -53.351562 21.816406 -53.671875 18.929688 -53.613281 C 18.398438 -53.601562 17.867188 -53.511719 17.335938 -53.503906 C 16.425781 -53.484375 15.65625 -53.847656 14.820312 -53.828125 C 14.363281 -53.820312 13.835938 -53.730469 13.378906 -53.722656 C 12.316406 -53.699219 9.042969 -53.933594 7.203125 -54.65625 C 7.125 -54.652344 7.046875 -54.726562 6.972656 -54.726562 C 5.375 -54.691406 5.222656 -47.695312 5.265625 -45.644531 C 5.277344 -45.113281 5.363281 -44.507812 5.375 -43.972656 C 5.410156 -42.378906 5.152344 -40.246094 5.179688 -38.953125 C 5.195312 -38.195312 5.589844 -37.441406 5.609375 -36.605469 C 5.617188 -36.226562 5.320312 -35.839844 5.328125 -35.460938 C 5.335938 -35.078125 5.421875 -34.703125 5.429688 -34.246094 C 5.441406 -33.636719 5.226562 -33.023438 5.242188 -32.339844 C 5.253906 -31.734375 5.347656 -31.050781 5.433594 -30.445312 C 5.453125 -29.609375 4.703125 -29.0625 4.71875 -28.453125 C 4.742188 -27.3125 5.984375 -25.972656 6.007812 -24.984375 C 6.019531 -24.453125 5.425781 -23.753906 5.4375 -23.222656 C 5.488281 -20.792969 5.691406 -18.363281 5.742188 -15.933594 C 5.746094 -15.703125 5.675781 -15.476562 5.679688 -15.246094 C 5.699219 -14.488281 6.242188 -13.890625 6.257812 -13.207031 C 5.738281 -12.664062 5.484375 -10.226562 5.484375 -10.300781 C 5.589844 -5.210938 6.011719 0.253906 10.039062 0.167969 C 14.667969 -0.160156 19.292969 -0.636719 23.777344 -0.734375 C 25.90625 -0.777344 28.113281 -0.519531 30.242188 -0.566406 C 32.292969 -0.609375 33.808594 -0.792969 33.746094 -3.757812 C 33.707031 -5.582031 30.132812 -5.734375 27.925781 -5.835938 C 27.550781 -5.601562 27.171875 -5.519531 26.792969 -5.507812 C 26.414062 -5.5 26.105469 -5.570312 25.726562 -5.5625 C 22.765625 -5.5 19.203125 -4.890625 16.847656 -4.84375 C 15.859375 -4.820312 14.796875 -4.875 14.785156 -5.40625 C 14.765625 -6.242188 15.429688 -7.246094 15.417969 -7.851562 C 15.398438 -8.6875 14.710938 -8.824219 14.09375 -9.269531 Z M 9.777344 -12.140625 C 9.242188 -12.28125 9.003906 -12.65625 8.996094 -13.113281 C 8.992188 -13.339844 9.054688 -13.875 9.433594 -13.882812 C 9.816406 -13.890625 9.980469 -13.210938 9.988281 -12.980469 C 9.992188 -12.679688 9.921875 -12.371094 9.777344 -12.066406 C 10.15625 -12.074219 10.328125 -11.164062 10.332031 -11.011719 C 10.339844 -10.710938 10.191406 -10.476562 9.976562 -9.941406 C 9.738281 -10.394531 9.574219 -10.84375 9.566406 -11.300781 C 9.5625 -11.527344 9.628906 -11.835938 9.777344 -12.140625 Z M 12.25 -17.363281 C 11.859375 -17.886719 11.699219 -18.1875 11.691406 -18.566406 C 11.6875 -18.796875 11.753906 -19.253906 12.125 -19.71875 C 12.511719 -19.34375 12.519531 -18.964844 12.527344 -18.660156 C 12.53125 -18.433594 12.464844 -18.050781 12.25 -17.363281 Z M 9.160156 -30.371094 C 8.84375 -30.972656 8.683594 -31.425781 8.671875 -31.957031 C 8.667969 -32.1875 8.652344 -32.792969 8.882812 -32.796875 C 8.957031 -32.800781 9.265625 -32.65625 9.265625 -32.578125 C 9.203125 -31.894531 9.222656 -31.132812 9.160156 -30.371094 Z M 11.292969 -33.761719 C 11.136719 -33.988281 10.980469 -34.210938 10.972656 -34.515625 C 10.972656 -34.589844 10.964844 -34.972656 11.191406 -34.976562 C 11.421875 -34.980469 11.574219 -34.832031 11.582031 -34.453125 C 11.589844 -34.222656 11.515625 -33.996094 11.292969 -33.761719 Z M 8.894531 -21.398438 C 8.746094 -21.242188 8.902344 -21.09375 8.675781 -21.089844 C 8.597656 -21.085938 8.519531 -21.238281 8.515625 -21.390625 C 8.589844 -21.464844 8.664062 -21.542969 8.742188 -21.546875 C 8.742188 -21.546875 8.816406 -21.472656 8.894531 -21.398438 Z M 11.515625 -30.5 C 11.441406 -30.421875 11.367188 -30.34375 11.367188 -30.34375 C 11.289062 -30.417969 11.210938 -30.566406 11.128906 -30.71875 C 11.128906 -30.71875 11.277344 -30.875 11.277344 -30.875 C 11.433594 -30.800781 11.511719 -30.648438 11.515625 -30.5 Z M 7.792969 -12.554688 C 7.640625 -12.550781 7.5625 -12.550781 7.558594 -12.703125 C 7.558594 -12.777344 7.632812 -12.78125 7.632812 -12.78125 C 7.785156 -12.785156 7.789062 -12.632812 7.792969 -12.554688 Z M 7.792969 -12.554688 "/></g></g></g></svg>